<svg width="24" height="24" viewBox="0 0 24 24" fill="none" xmlns="http://www.w3.org/2000/svg">
<path d="M9.75007 18C9.65155 18.0001 9.55398 17.9808 9.46297 17.9431C9.37195 17.9054 9.28929 17.8501 9.21972 17.7803L3.96972 12.5308C3.90007 12.4612 3.84482 12.3785 3.80712 12.2875C3.76942 12.1965 3.75001 12.099 3.75 12.0005C3.74998 11.8016 3.82899 11.6108 3.96963 11.4701C4.11027 11.3295 4.30104 11.2504 4.49995 11.2504C4.69887 11.2504 4.88965 11.3294 5.03032 11.47L9.75007 16.1894L19.7196 6.22003C19.8603 6.07936 20.0511 6.00033 20.25 6.00032C20.4489 6.00031 20.6397 6.07933 20.7804 6.21998C20.921 6.36064 21.0001 6.55141 21.0001 6.75034C21.0001 6.94927 20.9211 7.14005 20.7804 7.28072L10.2804 17.7803C10.2108 17.8501 10.1282 17.9054 10.0371 17.9431C9.94613 17.9808 9.84858 18.0001 9.75007 18Z" fill="#7EB781"/>
</svg>
