<svg width="14" height="14" viewBox="0 0 14 14" fill="none" xmlns="http://www.w3.org/2000/svg">
<g clip-path="url(#clip0_1601_4327)">
<path d="M4.66666 4.66669V3.50002C4.66666 2.21136 5.71133 1.16669 7 1.16669L10.5 1.16669C11.7887 1.16669 12.8333 2.21136 12.8333 3.50002V7.00002C12.8333 8.28868 11.7887 9.33335 10.5 9.33335H9.33333M4.66666 4.66669H3.5C2.21133 4.66669 1.16666 5.71136 1.16666 7.00002V10.5C1.16666 11.7887 2.21133 12.8334 3.5 12.8334H7C8.28866 12.8334 9.33333 11.7887 9.33333 10.5V9.33335M4.66666 4.66669H7C8.28866 4.66669 9.33333 5.71136 9.33333 7.00002V9.33335M3.5 8.75002L4.52248 9.568C4.76624 9.76301 5.12032 9.73155 5.32589 9.49662L7 7.58335" stroke="#1C3375" stroke-linecap="round" stroke-linejoin="round"/>
</g>
<defs>
<clipPath id="clip0_1601_4327">
<rect width="14" height="14" fill="white"/>
</clipPath>
</defs>
</svg>
