<svg width="24" height="24" viewBox="0 0 24 24" fill="none" xmlns="http://www.w3.org/2000/svg">
<g clip-path="url(#clip0_966_3610)">
<path d="M24 12C24 17.6087 19.4609 22.1739 13.8783 22.1739C11.8174 22.1739 9.83478 21.5478 8.13913 20.4C7.66957 20.0609 7.53913 19.4348 7.87826 18.9391C8.21739 18.4696 8.84348 18.3391 9.33913 18.6783C10.6696 19.5913 12.2609 20.0869 13.8783 20.0869C18.313 20.0869 21.913 16.4609 21.913 12C21.913 7.53912 18.313 3.91304 13.8783 3.91304C9.54783 3.91304 6 7.3826 5.84348 11.713L8.26957 9.26086C8.68696 8.84347 9.33913 8.84347 9.75652 9.26086C10.1739 9.67825 10.1739 10.3304 9.75652 10.7478L5.76522 14.7391C5.55652 14.9478 5.29565 15.0522 5.03478 15.0522C4.74783 15.0522 4.48696 14.9478 4.30435 14.7391L0.313043 10.7217C-0.104348 10.3043 -0.104348 9.65217 0.313043 9.23478C0.730435 8.81738 1.38261 8.81738 1.8 9.23478L3.78261 11.2435C4.14783 5.99999 8.53043 1.82608 13.8783 1.82608C19.4609 1.82608 24 6.3913 24 12ZM13.8261 6.07825C13.2522 6.07825 12.7826 6.54782 12.7826 7.12173V12C12.7826 12.2869 12.913 12.5478 13.1217 12.7304L15.3652 14.9739C15.5739 15.1826 15.8348 15.2869 16.1217 15.2869C16.3826 15.2869 16.6696 15.1826 16.8522 14.9739C17.2696 14.5565 17.2435 13.9043 16.8261 13.4869L14.8696 11.5565V7.12173C14.8696 6.54782 14.4 6.07825 13.8261 6.07825Z" fill="#1C3375"/>
</g>
<defs>
<clipPath id="clip0_966_3610">
<rect width="24" height="24" fill="white"/>
</clipPath>
</defs>
</svg>
