<svg width="44" height="44" viewBox="0 0 44 44" fill="none" xmlns="http://www.w3.org/2000/svg">
<rect width="44" height="44" rx="22" fill="#7EB781"/>
<path d="M31 22C31 22.1989 30.921 22.3897 30.7803 22.5303C30.6397 22.671 30.4489 22.75 30.25 22.75H22.75V30.25C22.75 30.4489 22.671 30.6397 22.5303 30.7803C22.3897 30.921 22.1989 31 22 31C21.8011 31 21.6103 30.921 21.4697 30.7803C21.329 30.6397 21.25 30.4489 21.25 30.25V22.75H13.75C13.5511 22.75 13.3603 22.671 13.2197 22.5303C13.079 22.3897 13 22.1989 13 22C13 21.8011 13.079 21.6103 13.2197 21.4697C13.3603 21.329 13.5511 21.25 13.75 21.25H21.25V13.75C21.25 13.5511 21.329 13.3603 21.4697 13.2197C21.6103 13.079 21.8011 13 22 13C22.1989 13 22.3897 13.079 22.5303 13.2197C22.671 13.3603 22.75 13.5511 22.75 13.75V21.25H30.25C30.4489 21.25 30.6397 21.329 30.7803 21.4697C30.921 21.6103 31 21.8011 31 22Z" fill="white"/>
</svg>
