<svg width="18" height="12" viewBox="0 0 18 12" fill="none" xmlns="http://www.w3.org/2000/svg">
<path d="M6.74981 11.9997C6.65129 11.9998 6.55372 11.9805 6.46271 11.9428C6.37169 11.9051 6.28903 11.8498 6.21946 11.78L0.969463 6.53049C0.899811 6.46085 0.844558 6.37818 0.806858 6.28718C0.769158 6.19619 0.749749 6.09866 0.749741 6.00017C0.749723 5.80125 0.828726 5.61047 0.969369 5.46981C1.11001 5.32914 1.30078 5.2501 1.49969 5.25008C1.69861 5.25007 1.88939 5.32907 2.03006 5.46971L6.74981 10.1891L16.7194 0.219709C16.86 0.0790404 17.0508 8.78894e-06 17.2497 7.33009e-10C17.4487 -8.78747e-06 17.6394 0.0790056 17.7801 0.219662C17.9208 0.360318 17.9998 0.551093 17.9998 0.75002C17.9998 0.948946 17.9208 1.13973 17.7802 1.2804L7.28015 11.78C7.21057 11.8498 7.1279 11.9051 7.03689 11.9427C6.94587 11.9804 6.84832 11.9998 6.74981 11.9997Z" fill="#63382C"/>
</svg>
