<svg width="53" height="16" viewBox="0 0 53 16" fill="none" xmlns="http://www.w3.org/2000/svg">
<path d="M14.5 12.5C14.5 12.6326 14.4473 12.7598 14.3535 12.8536C14.2598 12.9473 14.1326 13 14 13C13.8674 13 13.7402 12.9473 13.6464 12.8536C13.5527 12.7598 13.5 12.6326 13.5 12.5C13.4983 11.0418 12.9183 9.64384 11.8872 8.61275C10.8561 7.58166 9.45816 7.00167 7.99997 7.00001H3.2071L5.35354 9.14645C5.44731 9.24022 5.49999 9.3674 5.49999 9.50001C5.49999 9.63262 5.44731 9.7598 5.35354 9.85358C5.25977 9.94735 5.13259 10 4.99997 10C4.86736 10 4.74018 9.94735 4.64641 9.85358L1.64641 6.85358C1.64285 6.85008 1.63991 6.8462 1.63647 6.84264C1.62866 6.83433 1.62079 6.82601 1.61354 6.8172C1.60785 6.81033 1.60285 6.80301 1.59754 6.79589C1.59316 6.78989 1.58854 6.78414 1.58441 6.77795C1.5791 6.77001 1.57441 6.76183 1.56966 6.7537C1.56616 6.74776 1.56247 6.74208 1.55922 6.73601C1.55485 6.72789 1.55116 6.71964 1.54735 6.71139C1.54422 6.70476 1.54097 6.69833 1.53816 6.69158C1.53491 6.6837 1.53222 6.67564 1.52941 6.66758C1.52672 6.6602 1.52391 6.65289 1.5216 6.64539C1.5191 6.63726 1.51735 6.62914 1.51535 6.62101C1.51341 6.61326 1.51122 6.6057 1.50972 6.59789C1.50785 6.58845 1.50666 6.57889 1.50535 6.56933C1.50441 6.5627 1.50316 6.5562 1.50247 6.54951C1.49922 6.51659 1.49922 6.48343 1.50247 6.45051C1.5031 6.44383 1.50441 6.43733 1.50535 6.4307C1.50666 6.42114 1.50785 6.41158 1.50972 6.40214C1.51122 6.39433 1.51341 6.38676 1.51535 6.37901C1.51735 6.37089 1.5191 6.36276 1.5216 6.35464C1.52391 6.34714 1.52672 6.33983 1.52935 6.33245C1.53222 6.32439 1.53491 6.31633 1.5381 6.30845C1.54097 6.3017 1.54429 6.29526 1.54735 6.28864C1.55116 6.28039 1.55485 6.27214 1.55922 6.26401C1.56247 6.25795 1.56616 6.25226 1.56966 6.24633C1.57447 6.2382 1.57904 6.23001 1.58441 6.22208C1.58854 6.21589 1.59316 6.21014 1.59754 6.20414C1.60285 6.19701 1.60785 6.18976 1.61354 6.18283C1.62079 6.17401 1.62866 6.1657 1.63647 6.15739C1.63991 6.15383 1.64285 6.14995 1.64641 6.14645L4.64641 3.14645C4.74018 3.05268 4.86736 3 4.99997 3C5.13259 3 5.25977 3.05268 5.35354 3.14645C5.44731 3.24022 5.49999 3.3674 5.49999 3.50001C5.49999 3.63262 5.44731 3.7598 5.35354 3.85358L3.2071 6.00001H7.99997C9.72328 6.00196 11.3754 6.68741 12.594 7.90597C13.8126 9.12454 14.498 10.7767 14.5 12.5V12.5Z" fill="#3D3938"/>
<path d="M24.9588 12.5V3.77273H28.1548C28.7741 3.77273 29.2869 3.875 29.6932 4.07955C30.0994 4.28125 30.4034 4.5554 30.6051 4.90199C30.8068 5.24574 30.9077 5.63352 30.9077 6.06534C30.9077 6.42898 30.8409 6.7358 30.7074 6.9858C30.5739 7.23295 30.3949 7.43182 30.1705 7.58239C29.9489 7.73011 29.7045 7.83807 29.4375 7.90625V7.99148C29.7273 8.00568 30.0099 8.09943 30.2855 8.27273C30.5639 8.44318 30.794 8.68608 30.9759 9.00142C31.1577 9.31676 31.2486 9.70028 31.2486 10.152C31.2486 10.598 31.1435 10.9986 30.9332 11.3537C30.7259 11.706 30.4048 11.9858 29.9702 12.1932C29.5355 12.3977 28.9801 12.5 28.304 12.5H24.9588ZM26.2756 11.3707H28.1761C28.8068 11.3707 29.2585 11.2486 29.5312 11.0043C29.804 10.7599 29.9403 10.4545 29.9403 10.0881C29.9403 9.8125 29.8707 9.55966 29.7315 9.32955C29.5923 9.09943 29.3935 8.91619 29.1349 8.77983C28.8793 8.64347 28.5753 8.57528 28.223 8.57528H26.2756V11.3707ZM26.2756 7.5483H28.0398C28.3352 7.5483 28.6009 7.49148 28.8366 7.37784C29.0753 7.2642 29.2642 7.10511 29.4034 6.90057C29.5455 6.69318 29.6165 6.44886 29.6165 6.16761C29.6165 5.80682 29.4901 5.50426 29.2372 5.25994C28.9844 5.01562 28.5966 4.89347 28.0739 4.89347H26.2756V7.5483ZM34.6129 12.6449C34.1982 12.6449 33.8232 12.5682 33.4879 12.4148C33.1527 12.2585 32.8871 12.0327 32.6911 11.7372C32.4979 11.4418 32.4013 11.0795 32.4013 10.6506C32.4013 10.2812 32.4723 9.97727 32.6143 9.73864C32.7564 9.5 32.9482 9.31108 33.1896 9.17188C33.4311 9.03267 33.701 8.92756 33.9993 8.85653C34.2976 8.78551 34.6016 8.73153 34.9112 8.6946C35.3033 8.64915 35.6214 8.61222 35.8658 8.58381C36.1101 8.55256 36.2876 8.50284 36.3984 8.43466C36.5092 8.36648 36.5646 8.25568 36.5646 8.10227V8.07244C36.5646 7.70028 36.4595 7.41193 36.2493 7.20739C36.0419 7.00284 35.7322 6.90057 35.3203 6.90057C34.8913 6.90057 34.5533 6.99574 34.3061 7.18608C34.0618 7.37358 33.8928 7.58239 33.799 7.8125L32.6016 7.53977C32.7436 7.14205 32.951 6.82102 33.2237 6.5767C33.4993 6.32955 33.8161 6.15057 34.174 6.03977C34.532 5.92614 34.9084 5.86932 35.3033 5.86932C35.5646 5.86932 35.8416 5.90057 36.1342 5.96307C36.4297 6.02273 36.7053 6.13352 36.9609 6.29545C37.2195 6.45739 37.4311 6.68892 37.5959 6.99006C37.7607 7.28835 37.843 7.67614 37.843 8.15341V12.5H36.5987V11.6051H36.5476C36.4652 11.7699 36.3416 11.9318 36.1768 12.0909C36.0121 12.25 35.8004 12.3821 35.5419 12.4872C35.2834 12.5923 34.9737 12.6449 34.6129 12.6449ZM34.8899 11.6222C35.2422 11.6222 35.5433 11.5526 35.7933 11.4134C36.0462 11.2741 36.2379 11.0923 36.3686 10.8679C36.5021 10.6406 36.5689 10.3977 36.5689 10.1392V9.29545C36.5234 9.34091 36.4354 9.38352 36.3047 9.4233C36.1768 9.46023 36.0305 9.4929 35.8658 9.52131C35.701 9.54687 35.5405 9.57102 35.3842 9.59375C35.228 9.61364 35.0973 9.63068 34.9922 9.64489C34.745 9.67614 34.5192 9.72869 34.3146 9.80256C34.1129 9.87642 33.951 9.98295 33.8288 10.1222C33.7095 10.2585 33.6499 10.4403 33.6499 10.6676C33.6499 10.983 33.7663 11.2216 33.9993 11.3835C34.2322 11.5426 34.5291 11.6222 34.8899 11.6222ZM42.2972 12.6321C41.6637 12.6321 41.1183 12.4886 40.6609 12.2017C40.2063 11.9119 39.8569 11.5128 39.6126 11.0043C39.3683 10.4957 39.2461 9.91335 39.2461 9.2571C39.2461 8.59233 39.3711 8.00568 39.6211 7.49716C39.8711 6.9858 40.2234 6.58665 40.6779 6.29972C41.1325 6.01278 41.668 5.86932 42.2844 5.86932C42.7816 5.86932 43.2248 5.96165 43.614 6.14631C44.0032 6.32812 44.3171 6.58381 44.5558 6.91335C44.7972 7.2429 44.9407 7.62784 44.9862 8.06818H43.7461C43.6779 7.76136 43.5217 7.49716 43.2773 7.27557C43.0359 7.05398 42.712 6.94318 42.3058 6.94318C41.9506 6.94318 41.6396 7.03693 41.3725 7.22443C41.1083 7.40909 40.9023 7.6733 40.7546 8.01705C40.6069 8.35795 40.533 8.76136 40.533 9.22727C40.533 9.70455 40.6055 10.1165 40.7504 10.4631C40.8952 10.8097 41.0998 11.0781 41.364 11.2685C41.631 11.4588 41.945 11.554 42.3058 11.554C42.5472 11.554 42.766 11.5099 42.962 11.4219C43.1609 11.331 43.3271 11.2017 43.4606 11.0341C43.5969 10.8665 43.6921 10.6648 43.7461 10.429H44.9862C44.9407 10.8523 44.8029 11.2301 44.5728 11.5625C44.3427 11.8949 44.0344 12.1562 43.6481 12.3466C43.2646 12.5369 42.8143 12.6321 42.2972 12.6321ZM47.5206 10.2798L47.5121 8.72443H47.7337L50.3416 5.95455H51.8672L48.8928 9.10795H48.6925L47.5206 10.2798ZM46.3487 12.5V3.77273H47.6229V12.5H46.3487ZM50.4822 12.5L48.1385 9.3892L49.0163 8.49858L52.0462 12.5H50.4822Z" fill="#3D3938"/>
</svg>
