<svg width="25" height="24" viewBox="0 0 25 24" fill="none" xmlns="http://www.w3.org/2000/svg">
<path d="M22.1132 17.7902C22.6886 16.7145 22.993 15.5146 23 14.2947C23.007 13.0748 22.7163 11.8715 22.1531 10.7893C21.59 9.70711 20.7714 8.77857 19.7683 8.08421C18.7653 7.38984 17.608 6.9506 16.3968 6.80455C15.9988 5.87365 15.4164 5.03297 14.6848 4.33316C13.9532 3.63335 13.0875 3.08891 12.1398 2.73265C11.1922 2.37638 10.1822 2.21567 9.17077 2.26019C8.15934 2.30471 7.16739 2.55354 6.25469 2.99169C5.342 3.42984 4.52747 4.04825 3.86017 4.80963C3.19288 5.57101 2.68664 6.45961 2.37197 7.42188C2.05729 8.38415 1.9407 9.40017 2.0292 10.4087C2.11771 11.4172 2.40949 12.3974 2.88696 13.2902L2.30721 15.3199C2.24289 15.5449 2.23992 15.7831 2.29861 16.0097C2.35731 16.2363 2.47553 16.443 2.64102 16.6086C2.80652 16.7741 3.01327 16.8923 3.23985 16.9511C3.46642 17.0098 3.70459 17.0069 3.92965 16.9426L5.95953 16.3626C6.78096 16.8023 7.67725 17.0847 8.60234 17.1954C9.0113 18.1521 9.61476 19.0133 10.3744 19.7243C11.134 20.4353 12.0332 20.9805 13.0148 21.3254C13.9964 21.6702 15.039 21.8072 16.0764 21.7275C17.1138 21.6478 18.1233 21.3533 19.0407 20.8626L21.0705 21.4426C21.2956 21.5069 21.5338 21.5098 21.7603 21.4511C21.9869 21.3924 22.1937 21.2741 22.3592 21.1086C22.5247 20.9431 22.6429 20.7363 22.7016 20.5098C22.7603 20.2832 22.7574 20.045 22.6931 19.82L22.1132 17.7902ZM6.05478 14.8053C5.98508 14.8053 5.91573 14.815 5.84871 14.8341L3.84209 15.4075L4.41537 13.4007C4.44344 13.3025 4.45113 13.1995 4.43798 13.0982C4.42482 12.9968 4.3911 12.8992 4.33887 12.8114C3.59364 11.5548 3.33276 10.0693 3.60522 8.63392C3.87767 7.19855 4.66473 5.912 5.8186 5.01584C6.97248 4.11969 8.4138 3.67556 9.87195 3.76685C11.3301 3.85815 12.7048 4.47859 13.7378 5.51167C14.7709 6.54475 15.3914 7.91943 15.4827 9.37757C15.574 10.8357 15.1298 12.277 14.2337 13.4309C13.3375 14.5848 12.051 15.3718 10.6156 15.6443C9.18023 15.9168 7.69476 15.6559 6.43812 14.9106C6.32214 14.8417 6.18971 14.8053 6.05478 14.8053ZM20.6611 17.3112C20.6089 17.3991 20.5751 17.4967 20.562 17.5981C20.5488 17.6994 20.5565 17.8024 20.5846 17.9007L21.158 19.9075L19.1512 19.3341C19.0529 19.3061 18.95 19.2984 18.8486 19.3116C18.7473 19.3248 18.6497 19.3585 18.5619 19.4107C17.8755 19.8175 17.1149 20.0834 16.3245 20.1928C15.5342 20.3022 14.7299 20.253 13.9588 20.048C13.1877 19.843 12.4652 19.4863 11.8336 18.9989C11.2019 18.5114 10.6738 17.9029 10.28 17.2089C11.3073 17.1026 12.3016 16.785 13.2003 16.2761C14.099 15.7671 14.8828 15.0778 15.5023 14.2515C16.1219 13.4251 16.5639 12.4796 16.8006 11.4743C17.0373 10.4689 17.0635 9.42551 16.8777 8.40955C17.794 8.626 18.6466 9.05501 19.3665 9.6619C20.0864 10.2688 20.6535 11.0365 21.0218 11.9031C21.3901 12.7697 21.5493 13.7107 21.4867 14.6502C21.424 15.5897 21.1412 16.5013 20.6611 17.3113V17.3112Z" fill="#63382C"/>
</svg>
