<svg width="16" height="16" viewBox="0 0 16 16" fill="none" xmlns="http://www.w3.org/2000/svg">
<path d="M14 11.0813V4.91883C13.9995 4.82981 13.9756 4.7425 13.9306 4.66569C13.8856 4.58888 13.8212 4.52529 13.7437 4.48133L8.24375 1.38758C8.16964 1.34479 8.08557 1.32227 8 1.32227C7.91443 1.32227 7.83036 1.34479 7.75625 1.38758L2.25625 4.48133C2.17884 4.52529 2.1144 4.58888 2.06941 4.66569C2.02442 4.7425 2.00048 4.82981 2 4.91883V11.0813C2.00048 11.1703 2.02442 11.2577 2.06941 11.3345C2.1144 11.4113 2.17884 11.4749 2.25625 11.5188L7.75625 14.6126C7.83036 14.6554 7.91443 14.6779 8 14.6779C8.08557 14.6779 8.16964 14.6554 8.24375 14.6126L13.7437 11.5188C13.8212 11.4749 13.8856 11.4113 13.9306 11.3345C13.9756 11.2577 13.9995 11.1703 14 11.0813V11.0813Z" stroke="#3D3938" stroke-width="1.3" stroke-linecap="round" stroke-linejoin="round"/>
<path d="M13.9313 4.6626L8.05635 8.0001L2.06885 4.6626" stroke="#3D3938" stroke-width="1.3" stroke-linecap="round" stroke-linejoin="round"/>
<path d="M8.05625 8L8 14.675" stroke="#3D3938" stroke-width="1.3" stroke-linecap="round" stroke-linejoin="round"/>
</svg>
