<svg width="16" height="16" viewBox="0 0 16 16" fill="none" xmlns="http://www.w3.org/2000/svg">
<rect width="16" height="16" rx="2" transform="matrix(-4.37114e-08 -1 -1 4.37114e-08 16 16)" fill="white"/>
<path d="M2.49998 9.99998C2.49998 10.0989 2.5293 10.1955 2.58424 10.2778C2.63918 10.36 2.71727 10.4241 2.80864 10.4619C2.9 10.4998 3.00054 10.5097 3.09753 10.4904C3.19453 10.4711 3.28362 10.4235 3.35355 10.3535L7.99999 5.7071L12.6464 10.3535C12.7402 10.4473 12.8674 10.5 13 10.5C13.1326 10.5 13.2598 10.4473 13.3535 10.3535C13.4473 10.2598 13.5 10.1326 13.5 9.99998C13.5 9.86737 13.4473 9.74019 13.3535 9.64642L8.35355 4.64642C8.30712 4.59998 8.252 4.56315 8.19133 4.53802C8.13067 4.51289 8.06565 4.49996 7.99998 4.49996C7.93432 4.49996 7.8693 4.51289 7.80864 4.53802C7.74797 4.56315 7.69285 4.59998 7.64642 4.64642L2.64642 9.64642C2.59992 9.6928 2.56305 9.74791 2.53792 9.80859C2.51279 9.86926 2.4999 9.93431 2.49998 9.99998Z" fill="#1C1C1E"/>
</svg>
