<svg width="12" height="13" viewBox="0 0 12 13" fill="none" xmlns="http://www.w3.org/2000/svg">
<path d="M6.00001 9.12501C5.95075 9.12507 5.90197 9.11541 5.85646 9.09656C5.81096 9.07771 5.76962 9.05005 5.73484 9.01518L1.98484 5.26518C1.91451 5.19485 1.875 5.09947 1.875 5.00001C1.875 4.90055 1.91451 4.80517 1.98484 4.73484C2.05517 4.66451 2.15055 4.625 2.25001 4.625C2.34947 4.625 2.44485 4.66451 2.51518 4.73484L6.00001 8.21967L9.48484 4.73484C9.55517 4.66451 9.65055 4.625 9.75001 4.625C9.84947 4.625 9.94485 4.66451 10.0152 4.73484C10.0855 4.80517 10.125 4.90055 10.125 5.00001C10.125 5.09947 10.0855 5.19485 10.0152 5.26518L6.26518 9.01518C6.2304 9.05005 6.18906 9.07771 6.14356 9.09656C6.09805 9.11541 6.04927 9.12507 6.00001 9.12501Z" fill="#63382C"/>
</svg>
