<svg width="25" height="24" viewBox="0 0 25 24" fill="none" xmlns="http://www.w3.org/2000/svg">
<path d="M20.75 20.25V10.8281C20.7483 10.7243 20.7259 10.6219 20.684 10.5269C20.6422 10.4319 20.5817 10.3462 20.5062 10.275L13.0062 3.45933C12.868 3.33284 12.6874 3.2627 12.5 3.2627C12.3126 3.2627 12.132 3.33284 11.9937 3.45933L4.49375 10.275C4.41828 10.3462 4.35783 10.4319 4.31597 10.5269C4.27411 10.6219 4.25168 10.7243 4.25 10.8281V20.25" stroke="#63382C" stroke-width="1.5" stroke-linecap="round" stroke-linejoin="round"/>
<path d="M2 20.25H23" stroke="#63382C" stroke-width="1.5" stroke-linecap="round" stroke-linejoin="round"/>
<path d="M14.75 20.25V15C14.75 14.8011 14.671 14.6103 14.5303 14.4697C14.3897 14.329 14.1989 14.25 14 14.25H11C10.8011 14.25 10.6103 14.329 10.4697 14.4697C10.329 14.6103 10.25 14.8011 10.25 15V20.25" stroke="#63382C" stroke-width="1.5" stroke-linecap="round" stroke-linejoin="round"/>
</svg>
