<svg width="16" height="16" viewBox="0 0 16 16" fill="none" xmlns="http://www.w3.org/2000/svg">
<path d="M11.3335 6.66667C12.0668 6.66667 12.6668 6.06667 12.6668 5.33333V3.33333C12.6668 2.6 12.0668 2 11.3335 2H4.66683C3.9335 2 3.3335 2.6 3.3335 3.33333V5.33333C3.3335 6.06667 3.9335 6.66667 4.66683 6.66667H5.3335V8H4.66683C3.9335 8 3.3335 8.6 3.3335 9.33333V14H4.66683V12H11.3335V14H12.6668V9.33333C12.6668 8.6 12.0668 8 11.3335 8H10.6668V6.66667H11.3335ZM4.66683 5.33333V3.33333H11.3335V5.33333H4.66683ZM11.3335 10.6667H4.66683V9.33333H11.3335V10.6667ZM9.3335 8H6.66683V6.66667H9.3335V8Z" fill="#3D3938"/>
</svg>
