<svg width="359" height="84" viewBox="0 0 359 84" fill="none" xmlns="http://www.w3.org/2000/svg">
<path d="M27.9716 21.2727V30H26.9148V22.3807H26.8636L24.733 23.7955V22.7216L26.9148 21.2727H27.9716ZM33.3793 30.1193C33.0213 30.1136 32.6634 30.0455 32.3054 29.9148C31.9474 29.7841 31.6207 29.5639 31.3253 29.2543C31.0298 28.9418 30.7926 28.5199 30.6136 27.9886C30.4347 27.4545 30.3452 26.7841 30.3452 25.9773C30.3452 25.2045 30.4176 24.5199 30.5625 23.9233C30.7074 23.3239 30.9176 22.8196 31.1932 22.4105C31.4688 21.9986 31.8011 21.6861 32.1903 21.473C32.5824 21.2599 33.0241 21.1534 33.5156 21.1534C34.0043 21.1534 34.4389 21.2514 34.8196 21.4474C35.2031 21.6406 35.5156 21.9105 35.7571 22.2571C35.9986 22.6037 36.1548 23.0028 36.2259 23.4545H35.1861C35.0895 23.0625 34.902 22.7372 34.6236 22.4787C34.3452 22.2202 33.9759 22.0909 33.5156 22.0909C32.8395 22.0909 32.3068 22.3849 31.9176 22.973C31.5313 23.5611 31.3366 24.3864 31.3338 25.4489H31.402C31.5611 25.2074 31.75 25.0014 31.9688 24.831C32.1903 24.6577 32.4347 24.5241 32.7017 24.4304C32.9688 24.3366 33.2514 24.2898 33.5497 24.2898C34.0497 24.2898 34.5071 24.4148 34.9219 24.6648C35.3366 24.9119 35.669 25.2543 35.919 25.6918C36.169 26.1264 36.294 26.625 36.294 27.1875C36.294 27.7273 36.1733 28.2216 35.9318 28.6705C35.6903 29.1165 35.3509 29.4716 34.9134 29.7358C34.4787 29.9972 33.9673 30.125 33.3793 30.1193ZM33.3793 29.1818C33.7372 29.1818 34.0582 29.0923 34.3423 28.9134C34.6293 28.7344 34.8551 28.4943 35.0199 28.1932C35.1875 27.892 35.2713 27.5568 35.2713 27.1875C35.2713 26.8267 35.1903 26.4986 35.0284 26.2031C34.8693 25.9048 34.6491 25.6676 34.3679 25.4915C34.0895 25.3153 33.7713 25.2273 33.4134 25.2273C33.1435 25.2273 32.892 25.2812 32.6591 25.3892C32.4261 25.4943 32.2216 25.6392 32.0455 25.8239C31.8722 26.0085 31.7358 26.2202 31.6364 26.4588C31.5369 26.6946 31.4872 26.9432 31.4872 27.2045C31.4872 27.5511 31.5682 27.875 31.7301 28.1761C31.8949 28.4773 32.1193 28.7202 32.4034 28.9048C32.6903 29.0895 33.0156 29.1818 33.3793 29.1818Z" fill="#7D7B7A"/>
<path d="M28.4148 12H25.1186V1.81818H28.5192C29.5168 1.81818 30.3736 2.02202 31.0895 2.42969C31.8054 2.83404 32.3539 3.41572 32.7351 4.17472C33.1196 4.9304 33.3118 5.83688 33.3118 6.89418C33.3118 7.95478 33.1179 8.86624 32.7301 9.62855C32.3456 10.3909 31.7888 10.9775 31.0597 11.3885C30.3305 11.7962 29.4489 12 28.4148 12ZM26.6548 10.6577H28.3303C29.1058 10.6577 29.7505 10.5118 30.2642 10.2202C30.7779 9.92519 31.1624 9.49929 31.4176 8.94247C31.6728 8.38234 31.8004 7.69957 31.8004 6.89418C31.8004 6.09541 31.6728 5.41761 31.4176 4.8608C31.1657 4.30398 30.7895 3.88139 30.2891 3.59304C29.7886 3.30469 29.1671 3.16051 28.4247 3.16051H26.6548V10.6577ZM37.3251 12.169C36.8412 12.169 36.4037 12.0795 36.0126 11.9006C35.6215 11.7183 35.3116 11.4548 35.0829 11.1101C34.8575 10.7654 34.7449 10.3428 34.7449 9.84233C34.7449 9.41146 34.8277 9.05682 34.9934 8.77841C35.1592 8.5 35.3829 8.27959 35.6646 8.11719C35.9463 7.95478 36.2612 7.83215 36.6092 7.74929C36.9572 7.66643 37.3118 7.60346 37.6731 7.56037C38.1305 7.50734 38.5017 7.46425 38.7868 7.43111C39.0718 7.39465 39.2789 7.33665 39.4082 7.2571C39.5375 7.17756 39.6021 7.0483 39.6021 6.86932V6.83452C39.6021 6.40033 39.4795 6.06392 39.2342 5.82528C38.9922 5.58665 38.631 5.46733 38.1504 5.46733C37.6499 5.46733 37.2555 5.57836 36.9672 5.80043C36.6821 6.01918 36.4849 6.26278 36.3755 6.53125L34.9785 6.21307C35.1442 5.74905 35.3862 5.37453 35.7044 5.08949C36.0259 4.80114 36.3954 4.59233 36.813 4.46307C37.2306 4.33049 37.6698 4.2642 38.1305 4.2642C38.4354 4.2642 38.7586 4.30066 39.1 4.37358C39.4447 4.44318 39.7662 4.57244 40.0645 4.76136C40.3661 4.95028 40.613 5.22041 40.8052 5.57173C40.9975 5.91974 41.0936 6.37216 41.0936 6.92898V12H39.6419V10.956H39.5822C39.4861 11.1482 39.3419 11.3371 39.1497 11.5227C38.9574 11.7083 38.7105 11.8625 38.4089 11.9851C38.1073 12.1077 37.746 12.169 37.3251 12.169ZM37.6483 10.9759C38.0592 10.9759 38.4106 10.8946 38.7022 10.7322C38.9972 10.5698 39.2209 10.3577 39.3734 10.0959C39.5292 9.83073 39.6071 9.54735 39.6071 9.24574V8.26136C39.554 8.31439 39.4513 8.36411 39.2988 8.41051C39.1497 8.4536 38.979 8.49171 38.7868 8.52486C38.5945 8.55469 38.4073 8.58286 38.225 8.60938C38.0427 8.63258 37.8902 8.65246 37.7676 8.66903C37.4792 8.70549 37.2157 8.76681 36.9771 8.85298C36.7418 8.93916 36.5529 9.06345 36.4103 9.22585C36.2711 9.38494 36.2015 9.59706 36.2015 9.86222C36.2015 10.2301 36.3374 10.5085 36.6092 10.6974C36.881 10.883 37.2273 10.9759 37.6483 10.9759ZM43.7397 14.8636C43.5176 14.8636 43.3155 14.8454 43.1332 14.8089C42.9509 14.7758 42.815 14.7393 42.7255 14.6996L43.0835 13.4815C43.3552 13.5545 43.5972 13.5859 43.8093 13.576C44.0214 13.5661 44.2087 13.4865 44.3711 13.3374C44.5368 13.1882 44.6826 12.9446 44.8086 12.6065L44.9925 12.0994L42.1985 4.36364H43.7894L45.7234 10.2898H45.8029L47.7369 4.36364H49.3327L46.1857 13.0192C46.0399 13.4169 45.8543 13.7533 45.6289 14.0284C45.4035 14.3068 45.1351 14.5156 44.8235 14.6548C44.512 14.794 44.1507 14.8636 43.7397 14.8636ZM56.4521 6.22798L55.1048 6.46662C55.0484 6.29427 54.9589 6.13021 54.8363 5.97443C54.717 5.81865 54.5546 5.69105 54.3491 5.59162C54.1436 5.49219 53.8867 5.44247 53.5785 5.44247C53.1576 5.44247 52.8062 5.53693 52.5245 5.72585C52.2428 5.91146 52.1019 6.15175 52.1019 6.44673C52.1019 6.70194 52.1964 6.90743 52.3853 7.06321C52.5742 7.21899 52.8791 7.34659 53.3001 7.44602L54.5131 7.72443C55.2158 7.88684 55.7395 8.13707 56.0842 8.47514C56.4289 8.81321 56.6012 9.25237 56.6012 9.79261C56.6012 10.25 56.4686 10.6577 56.2035 11.0156C55.9416 11.3703 55.5754 11.6487 55.1048 11.8509C54.6374 12.053 54.0955 12.1541 53.479 12.1541C52.6239 12.1541 51.9263 11.9718 51.386 11.6072C50.8458 11.2393 50.5143 10.7173 50.3917 10.0412L51.8285 9.82244C51.918 10.197 52.1019 10.4804 52.3803 10.6726C52.6587 10.8615 53.0217 10.956 53.4691 10.956C53.9563 10.956 54.3458 10.8549 54.6374 10.6527C54.9291 10.4472 55.0749 10.197 55.0749 9.90199C55.0749 9.66335 54.9854 9.46283 54.8065 9.30043C54.6308 9.13802 54.3607 9.01539 53.9961 8.93253L52.7035 8.64915C51.9909 8.48674 51.4639 8.22822 51.1225 7.87358C50.7844 7.51894 50.6154 7.06984 50.6154 6.52628C50.6154 6.07552 50.7414 5.68111 50.9933 5.34304C51.2451 5.00497 51.5932 4.74148 52.0373 4.55256C52.4814 4.36032 52.9902 4.2642 53.5636 4.2642C54.3888 4.2642 55.0385 4.44318 55.5124 4.80114C55.9864 5.15578 56.2996 5.63139 56.4521 6.22798Z" fill="#3D3938"/>
<path d="M13 2.5H3C2.72386 2.5 2.5 2.72386 2.5 3V13C2.5 13.2761 2.72386 13.5 3 13.5H13C13.2761 13.5 13.5 13.2761 13.5 13V3C13.5 2.72386 13.2761 2.5 13 2.5Z" stroke="#3D3938" stroke-width="1.3" stroke-linecap="round" stroke-linejoin="round"/>
<path d="M11 1.5V3.5" stroke="#3D3938" stroke-width="1.3" stroke-linecap="round" stroke-linejoin="round"/>
<path d="M5 1.5V3.5" stroke="#3D3938" stroke-width="1.3" stroke-linecap="round" stroke-linejoin="round"/>
<path d="M2.5 5.5H13.5" stroke="#3D3938" stroke-width="1.3" stroke-linecap="round" stroke-linejoin="round"/>
<path d="M10.25 8L7.33125 10.75L5.75 9.25" stroke="#3D3938" stroke-width="1.3" stroke-linecap="round" stroke-linejoin="round"/>
<path d="M114.852 30.1193C114.29 30.1193 113.788 30.0227 113.348 29.8295C112.911 29.6364 112.563 29.3679 112.304 29.0241C112.048 28.6776 111.909 28.2756 111.886 27.8182H112.96C112.983 28.0994 113.08 28.3423 113.25 28.5469C113.42 28.7486 113.643 28.9048 113.919 29.0156C114.195 29.1264 114.5 29.1818 114.835 29.1818C115.21 29.1818 115.543 29.1165 115.832 28.9858C116.122 28.8551 116.349 28.6733 116.514 28.4403C116.679 28.2074 116.761 27.9375 116.761 27.6307C116.761 27.3097 116.682 27.027 116.523 26.7827C116.364 26.5355 116.131 26.3423 115.824 26.2031C115.517 26.0639 115.142 25.9943 114.699 25.9943H114V25.0568H114.699C115.045 25.0568 115.349 24.9943 115.611 24.8693C115.875 24.7443 116.081 24.5682 116.229 24.3409C116.379 24.1136 116.455 23.8466 116.455 23.5398C116.455 23.2443 116.389 22.9872 116.259 22.7685C116.128 22.5497 115.943 22.3793 115.705 22.2571C115.469 22.1349 115.19 22.0739 114.869 22.0739C114.568 22.0739 114.284 22.1293 114.017 22.2401C113.753 22.348 113.537 22.5057 113.369 22.7131C113.202 22.9176 113.111 23.1648 113.097 23.4545H112.074C112.091 22.9972 112.229 22.5966 112.487 22.2528C112.746 21.9062 113.084 21.6364 113.501 21.4432C113.922 21.25 114.384 21.1534 114.886 21.1534C115.426 21.1534 115.889 21.2628 116.276 21.4815C116.662 21.6974 116.959 21.983 117.166 22.3381C117.374 22.6932 117.477 23.0767 117.477 23.4886C117.477 23.9801 117.348 24.3991 117.089 24.7457C116.834 25.0923 116.486 25.3324 116.045 25.4659V25.5341C116.597 25.625 117.027 25.8594 117.337 26.2372C117.646 26.6122 117.801 27.0767 117.801 27.6307C117.801 28.1051 117.672 28.5312 117.413 28.9091C117.158 29.2841 116.808 29.5795 116.365 29.7955C115.922 30.0114 115.418 30.1193 114.852 30.1193Z" fill="#7D7B7A"/>
<path d="M112.119 12V1.81818H115.748C116.537 1.81818 117.191 1.95407 117.712 2.22585C118.235 2.49763 118.626 2.87382 118.885 3.3544C119.143 3.83168 119.273 4.38352 119.273 5.00994C119.273 5.63305 119.142 6.18158 118.88 6.65554C118.621 7.12618 118.23 7.49242 117.707 7.75426C117.186 8.0161 116.532 8.14702 115.743 8.14702H112.994V6.82457H115.604C116.101 6.82457 116.505 6.75331 116.817 6.6108C117.132 6.46828 117.362 6.26113 117.508 5.98935C117.654 5.71757 117.727 5.3911 117.727 5.00994C117.727 4.62547 117.652 4.29238 117.503 4.01065C117.357 3.72893 117.127 3.51349 116.812 3.36435C116.5 3.21188 116.091 3.13565 115.584 3.13565H113.655V12H112.119ZM117.145 7.40625L119.661 12H117.911L115.445 7.40625H117.145ZM124.144 12.1541C123.428 12.1541 122.803 11.9901 122.269 11.6619C121.736 11.3338 121.321 10.8748 121.026 10.2848C120.731 9.69484 120.584 9.00544 120.584 8.21662C120.584 7.42448 120.731 6.73177 121.026 6.13849C121.321 5.54522 121.736 5.08452 122.269 4.75639C122.803 4.42827 123.428 4.2642 124.144 4.2642C124.86 4.2642 125.484 4.42827 126.018 4.75639C126.552 5.08452 126.966 5.54522 127.261 6.13849C127.556 6.73177 127.703 7.42448 127.703 8.21662C127.703 9.00544 127.556 9.69484 127.261 10.2848C126.966 10.8748 126.552 11.3338 126.018 11.6619C125.484 11.9901 124.86 12.1541 124.144 12.1541ZM124.149 10.9062C124.613 10.9062 124.997 10.7836 125.302 10.5384C125.607 10.2931 125.832 9.96662 125.978 9.55895C126.127 9.15128 126.202 8.70218 126.202 8.21165C126.202 7.72443 126.127 7.27699 125.978 6.86932C125.832 6.45833 125.607 6.12855 125.302 5.87997C124.997 5.63139 124.613 5.5071 124.149 5.5071C123.681 5.5071 123.294 5.63139 122.985 5.87997C122.68 6.12855 122.453 6.45833 122.304 6.86932C122.158 7.27699 122.085 7.72443 122.085 8.21165C122.085 8.70218 122.158 9.15128 122.304 9.55895C122.453 9.96662 122.68 10.2931 122.985 10.5384C123.294 10.7836 123.681 10.9062 124.149 10.9062ZM132.579 12.1541C131.863 12.1541 131.239 11.9901 130.705 11.6619C130.171 11.3338 129.757 10.8748 129.462 10.2848C129.167 9.69484 129.02 9.00544 129.02 8.21662C129.02 7.42448 129.167 6.73177 129.462 6.13849C129.757 5.54522 130.171 5.08452 130.705 4.75639C131.239 4.42827 131.863 4.2642 132.579 4.2642C133.295 4.2642 133.92 4.42827 134.453 4.75639C134.987 5.08452 135.401 5.54522 135.696 6.13849C135.991 6.73177 136.139 7.42448 136.139 8.21662C136.139 9.00544 135.991 9.69484 135.696 10.2848C135.401 10.8748 134.987 11.3338 134.453 11.6619C133.92 11.9901 133.295 12.1541 132.579 12.1541ZM132.584 10.9062C133.048 10.9062 133.433 10.7836 133.738 10.5384C134.042 10.2931 134.268 9.96662 134.414 9.55895C134.563 9.15128 134.637 8.70218 134.637 8.21165C134.637 7.72443 134.563 7.27699 134.414 6.86932C134.268 6.45833 134.042 6.12855 133.738 5.87997C133.433 5.63139 133.048 5.5071 132.584 5.5071C132.117 5.5071 131.729 5.63139 131.421 5.87997C131.116 6.12855 130.889 6.45833 130.74 6.86932C130.594 7.27699 130.521 7.72443 130.521 8.21165C130.521 8.70218 130.594 9.15128 130.74 9.55895C130.889 9.96662 131.116 10.2931 131.421 10.5384C131.729 10.7836 132.117 10.9062 132.584 10.9062ZM137.798 12V4.36364H139.225V5.60653H139.319C139.479 5.18561 139.739 4.85748 140.1 4.62216C140.461 4.38352 140.894 4.2642 141.398 4.2642C141.908 4.2642 142.336 4.38352 142.68 4.62216C143.028 4.8608 143.285 5.18892 143.451 5.60653H143.53C143.713 5.19886 144.003 4.87405 144.4 4.6321C144.798 4.38684 145.272 4.2642 145.822 4.2642C146.515 4.2642 147.08 4.4813 147.518 4.91548C147.958 5.34967 148.179 6.00426 148.179 6.87926V12H146.692V7.01847C146.692 6.50142 146.551 6.12689 146.27 5.89489C145.988 5.66288 145.652 5.54688 145.26 5.54688C144.777 5.54688 144.4 5.69602 144.132 5.99432C143.863 6.2893 143.729 6.6688 143.729 7.13281V12H142.248V6.92401C142.248 6.50971 142.118 6.17661 141.86 5.92472C141.601 5.67282 141.265 5.54688 140.851 5.54688C140.569 5.54688 140.309 5.62145 140.07 5.7706C139.835 5.91643 139.644 6.12026 139.498 6.3821C139.356 6.64394 139.285 6.94721 139.285 7.2919V12H137.798ZM155.893 6.22798L154.546 6.46662C154.49 6.29427 154.4 6.13021 154.278 5.97443C154.158 5.81865 153.996 5.69105 153.79 5.59162C153.585 5.49219 153.328 5.44247 153.02 5.44247C152.599 5.44247 152.248 5.53693 151.966 5.72585C151.684 5.91146 151.543 6.15175 151.543 6.44673C151.543 6.70194 151.638 6.90743 151.827 7.06321C152.016 7.21899 152.321 7.34659 152.741 7.44602L153.955 7.72443C154.657 7.88684 155.181 8.13707 155.526 8.47514C155.87 8.81321 156.043 9.25237 156.043 9.79261C156.043 10.25 155.91 10.6577 155.645 11.0156C155.383 11.3703 155.017 11.6487 154.546 11.8509C154.079 12.053 153.537 12.1541 152.92 12.1541C152.065 12.1541 151.368 11.9718 150.827 11.6072C150.287 11.2393 149.956 10.7173 149.833 10.0412L151.27 9.82244C151.359 10.197 151.543 10.4804 151.822 10.6726C152.1 10.8615 152.463 10.956 152.911 10.956C153.398 10.956 153.787 10.8549 154.079 10.6527C154.371 10.4472 154.516 10.197 154.516 9.90199C154.516 9.66335 154.427 9.46283 154.248 9.30043C154.072 9.13802 153.802 9.01539 153.438 8.93253L152.145 8.64915C151.432 8.48674 150.905 8.22822 150.564 7.87358C150.226 7.51894 150.057 7.06984 150.057 6.52628C150.057 6.07552 150.183 5.68111 150.435 5.34304C150.687 5.00497 151.035 4.74148 151.479 4.55256C151.923 4.36032 152.432 4.2642 153.005 4.2642C153.83 4.2642 154.48 4.44318 154.954 4.80114C155.428 5.15578 155.741 5.63139 155.893 6.22798Z" fill="#3D3938"/>
<path d="M101 11.0813V4.91883C101 4.82981 100.976 4.7425 100.931 4.66569C100.886 4.58888 100.821 4.52529 100.744 4.48133L95.2437 1.38758C95.1696 1.34479 95.0856 1.32227 95 1.32227C94.9144 1.32227 94.8304 1.34479 94.7562 1.38758L89.2562 4.48133C89.1788 4.52529 89.1144 4.58888 89.0694 4.66569C89.0244 4.7425 89.0005 4.82981 89 4.91883V11.0813C89.0005 11.1703 89.0244 11.2577 89.0694 11.3345C89.1144 11.4113 89.1788 11.4749 89.2562 11.5188L94.7562 14.6126C94.8304 14.6554 94.9144 14.6779 95 14.6779C95.0856 14.6779 95.1696 14.6554 95.2437 14.6126L100.744 11.5188C100.821 11.4749 100.886 11.4113 100.931 11.3345C100.976 11.2577 101 11.1703 101 11.0813V11.0813Z" stroke="#3D3938" stroke-width="1.3" stroke-linecap="round" stroke-linejoin="round"/>
<path d="M100.931 4.6626L95.0563 8.0001L89.0688 4.6626" stroke="#3D3938" stroke-width="1.3" stroke-linecap="round" stroke-linejoin="round"/>
<path d="M95.0562 8L95 14.675" stroke="#3D3938" stroke-width="1.3" stroke-linecap="round" stroke-linejoin="round"/>
<path d="M214.852 30.1193C214.29 30.1193 213.788 30.0227 213.348 29.8295C212.911 29.6364 212.563 29.3679 212.304 29.0241C212.048 28.6776 211.909 28.2756 211.886 27.8182H212.96C212.983 28.0994 213.08 28.3423 213.25 28.5469C213.42 28.7486 213.643 28.9048 213.919 29.0156C214.195 29.1264 214.5 29.1818 214.835 29.1818C215.21 29.1818 215.543 29.1165 215.832 28.9858C216.122 28.8551 216.349 28.6733 216.514 28.4403C216.679 28.2074 216.761 27.9375 216.761 27.6307C216.761 27.3097 216.682 27.027 216.523 26.7827C216.364 26.5355 216.131 26.3423 215.824 26.2031C215.517 26.0639 215.142 25.9943 214.699 25.9943H214V25.0568H214.699C215.045 25.0568 215.349 24.9943 215.611 24.8693C215.875 24.7443 216.081 24.5682 216.229 24.3409C216.379 24.1136 216.455 23.8466 216.455 23.5398C216.455 23.2443 216.389 22.9872 216.259 22.7685C216.128 22.5497 215.943 22.3793 215.705 22.2571C215.469 22.1349 215.19 22.0739 214.869 22.0739C214.568 22.0739 214.284 22.1293 214.017 22.2401C213.753 22.348 213.537 22.5057 213.369 22.7131C213.202 22.9176 213.111 23.1648 213.097 23.4545H212.074C212.091 22.9972 212.229 22.5966 212.487 22.2528C212.746 21.9062 213.084 21.6364 213.501 21.4432C213.922 21.25 214.384 21.1534 214.886 21.1534C215.426 21.1534 215.889 21.2628 216.276 21.4815C216.662 21.6974 216.959 21.983 217.166 22.3381C217.374 22.6932 217.477 23.0767 217.477 23.4886C217.477 23.9801 217.348 24.3991 217.089 24.7457C216.834 25.0923 216.486 25.3324 216.045 25.4659V25.5341C216.597 25.625 217.027 25.8594 217.337 26.2372C217.646 26.6122 217.801 27.0767 217.801 27.6307C217.801 28.1051 217.672 28.5312 217.413 28.9091C217.158 29.2841 216.808 29.5795 216.365 29.7955C215.922 30.0114 215.418 30.1193 214.852 30.1193Z" fill="#7D7B7A"/>
<path d="M220.575 5.12926H219.024C218.964 4.79782 218.853 4.50615 218.691 4.25426C218.529 4.00237 218.33 3.78859 218.094 3.61293C217.859 3.43726 217.596 3.30469 217.304 3.2152C217.016 3.12571 216.709 3.08097 216.384 3.08097C215.798 3.08097 215.272 3.22846 214.808 3.52344C214.348 3.81842 213.983 4.25095 213.714 4.82102C213.449 5.3911 213.317 6.08712 213.317 6.90909C213.317 7.73769 213.449 8.43703 213.714 9.0071C213.983 9.57718 214.349 10.008 214.813 10.2997C215.277 10.5914 215.799 10.7372 216.379 10.7372C216.701 10.7372 217.006 10.6941 217.294 10.608C217.586 10.5185 217.849 10.3875 218.085 10.2152C218.32 10.0429 218.519 9.83239 218.681 9.58381C218.847 9.33191 218.961 9.04356 219.024 8.71875L220.575 8.72372C220.492 9.22419 220.332 9.6849 220.093 10.1058C219.858 10.5234 219.554 10.8847 219.183 11.1896C218.815 11.4912 218.394 11.7249 217.92 11.8906C217.446 12.0563 216.929 12.1392 216.369 12.1392C215.488 12.1392 214.702 11.9304 214.013 11.5128C213.323 11.0919 212.78 10.4903 212.382 9.7081C211.988 8.9259 211.79 7.9929 211.79 6.90909C211.79 5.82197 211.989 4.88897 212.387 4.11008C212.785 3.32789 213.328 2.72798 214.018 2.31037C214.707 1.88944 215.491 1.67898 216.369 1.67898C216.91 1.67898 217.413 1.75687 217.881 1.91264C218.351 2.0651 218.774 2.29048 219.148 2.58878C219.523 2.88376 219.833 3.24503 220.078 3.67258C220.323 4.09683 220.489 4.58239 220.575 5.12926ZM223.781 7.46591V12H222.294V1.81818H223.761V5.60653H223.855C224.034 5.19555 224.308 4.86908 224.676 4.62713C225.044 4.38518 225.524 4.2642 226.117 4.2642C226.641 4.2642 227.098 4.37192 227.49 4.58736C227.884 4.80279 228.189 5.12429 228.404 5.55185C228.623 5.97609 228.732 6.50639 228.732 7.14276V12H227.246V7.32173C227.246 6.7616 227.102 6.32741 226.813 6.01918C226.525 5.70762 226.124 5.55185 225.61 5.55185C225.259 5.55185 224.944 5.62642 224.666 5.77557C224.391 5.92472 224.173 6.14347 224.014 6.43182C223.859 6.71686 223.781 7.06155 223.781 7.46591ZM232.938 12.169C232.454 12.169 232.017 12.0795 231.626 11.9006C231.235 11.7183 230.925 11.4548 230.696 11.1101C230.471 10.7654 230.358 10.3428 230.358 9.84233C230.358 9.41146 230.441 9.05682 230.607 8.77841C230.772 8.5 230.996 8.27959 231.278 8.11719C231.56 7.95478 231.874 7.83215 232.222 7.74929C232.57 7.66643 232.925 7.60346 233.286 7.56037C233.744 7.50734 234.115 7.46425 234.4 7.43111C234.685 7.39465 234.892 7.33665 235.021 7.2571C235.151 7.17756 235.215 7.0483 235.215 6.86932V6.83452C235.215 6.40033 235.093 6.06392 234.847 5.82528C234.606 5.58665 234.244 5.46733 233.764 5.46733C233.263 5.46733 232.869 5.57836 232.58 5.80043C232.295 6.01918 232.098 6.26278 231.989 6.53125L230.592 6.21307C230.758 5.74905 230.999 5.37453 231.318 5.08949C231.639 4.80114 232.009 4.59233 232.426 4.46307C232.844 4.33049 233.283 4.2642 233.744 4.2642C234.049 4.2642 234.372 4.30066 234.713 4.37358C235.058 4.44318 235.379 4.57244 235.678 4.76136C235.979 4.95028 236.226 5.22041 236.419 5.57173C236.611 5.91974 236.707 6.37216 236.707 6.92898V12H235.255V10.956H235.195C235.099 11.1482 234.955 11.3371 234.763 11.5227C234.571 11.7083 234.324 11.8625 234.022 11.9851C233.721 12.1077 233.359 12.169 232.938 12.169ZM233.262 10.9759C233.673 10.9759 234.024 10.8946 234.316 10.7322C234.61 10.5698 234.834 10.3577 234.987 10.0959C235.142 9.83073 235.22 9.54735 235.22 9.24574V8.26136C235.167 8.31439 235.065 8.36411 234.912 8.41051C234.763 8.4536 234.592 8.49171 234.4 8.52486C234.208 8.55469 234.021 8.58286 233.838 8.60938C233.656 8.63258 233.503 8.65246 233.381 8.66903C233.093 8.70549 232.829 8.76681 232.59 8.85298C232.355 8.93916 232.166 9.06345 232.024 9.22585C231.884 9.38494 231.815 9.59706 231.815 9.86222C231.815 10.2301 231.951 10.5085 232.222 10.6974C232.494 10.883 232.841 10.9759 233.262 10.9759ZM238.687 12V4.36364H240.173V12H238.687ZM239.438 3.18537C239.179 3.18537 238.957 3.09919 238.771 2.92685C238.589 2.75118 238.498 2.54238 238.498 2.30043C238.498 2.05516 238.589 1.84635 238.771 1.67401C238.957 1.49834 239.179 1.41051 239.438 1.41051C239.696 1.41051 239.916 1.49834 240.099 1.67401C240.284 1.84635 240.377 2.05516 240.377 2.30043C240.377 2.54238 240.284 2.75118 240.099 2.92685C239.916 3.09919 239.696 3.18537 239.438 3.18537ZM242.173 12V4.36364H243.61V5.5767H243.689C243.829 5.16572 244.074 4.84257 244.425 4.60724C244.78 4.36861 245.181 4.24929 245.628 4.24929C245.721 4.24929 245.831 4.2526 245.956 4.25923C246.086 4.26586 246.187 4.27415 246.26 4.28409V5.70597C246.2 5.68939 246.094 5.67116 245.942 5.65128C245.789 5.62808 245.637 5.61648 245.484 5.61648C245.133 5.61648 244.82 5.69105 244.545 5.8402C244.273 5.98603 244.057 6.18987 243.898 6.4517C243.739 6.71023 243.66 7.00521 243.66 7.33665V12H242.173ZM253.268 6.22798L251.921 6.46662C251.865 6.29427 251.775 6.13021 251.653 5.97443C251.533 5.81865 251.371 5.69105 251.165 5.59162C250.96 5.49219 250.703 5.44247 250.395 5.44247C249.974 5.44247 249.623 5.53693 249.341 5.72585C249.059 5.91146 248.918 6.15175 248.918 6.44673C248.918 6.70194 249.013 6.90743 249.202 7.06321C249.391 7.21899 249.696 7.34659 250.116 7.44602L251.33 7.72443C252.032 7.88684 252.556 8.13707 252.901 8.47514C253.245 8.81321 253.418 9.25237 253.418 9.79261C253.418 10.25 253.285 10.6577 253.02 11.0156C252.758 11.3703 252.392 11.6487 251.921 11.8509C251.454 12.053 250.912 12.1541 250.295 12.1541C249.44 12.1541 248.743 11.9718 248.202 11.6072C247.662 11.2393 247.331 10.7173 247.208 10.0412L248.645 9.82244C248.734 10.197 248.918 10.4804 249.197 10.6726C249.475 10.8615 249.838 10.956 250.286 10.956C250.773 10.956 251.162 10.8549 251.454 10.6527C251.746 10.4472 251.891 10.197 251.891 9.90199C251.891 9.66335 251.802 9.46283 251.623 9.30043C251.447 9.13802 251.177 9.01539 250.812 8.93253L249.52 8.64915C248.807 8.48674 248.28 8.22822 247.939 7.87358C247.601 7.51894 247.432 7.06984 247.432 6.52628C247.432 6.07552 247.558 5.68111 247.81 5.34304C248.062 5.00497 248.41 4.74148 248.854 4.55256C249.298 4.36032 249.807 4.2642 250.38 4.2642C251.205 4.2642 251.855 4.44318 252.329 4.80114C252.803 5.15578 253.116 5.63139 253.268 6.22798Z" fill="#3D3938"/>
<path d="M198.333 6.66667C199.067 6.66667 199.667 6.06667 199.667 5.33333V3.33333C199.667 2.6 199.067 2 198.333 2H191.667C190.933 2 190.333 2.6 190.333 3.33333V5.33333C190.333 6.06667 190.933 6.66667 191.667 6.66667H192.333V8H191.667C190.933 8 190.333 8.6 190.333 9.33333V14H191.667V12H198.333V14H199.667V9.33333C199.667 8.6 199.067 8 198.333 8H197.667V6.66667H198.333ZM191.667 5.33333V3.33333H198.333V5.33333H191.667ZM198.333 10.6667H191.667V9.33333H198.333V10.6667ZM196.333 8H193.667V6.66667H196.333V8Z" fill="#3D3938"/>
<path d="M307.903 30V29.233L310.784 26.0795C311.122 25.7102 311.401 25.3892 311.619 25.1165C311.838 24.8409 312 24.5824 312.105 24.3409C312.213 24.0966 312.267 23.8409 312.267 23.5739C312.267 23.267 312.193 23.0014 312.045 22.777C311.901 22.5526 311.702 22.3793 311.449 22.2571C311.196 22.1349 310.912 22.0739 310.597 22.0739C310.261 22.0739 309.969 22.1435 309.719 22.2827C309.472 22.419 309.28 22.6108 309.143 22.858C309.01 23.1051 308.943 23.3949 308.943 23.7273H307.938C307.938 23.2159 308.055 22.767 308.291 22.3807C308.527 21.9943 308.848 21.6932 309.254 21.4773C309.663 21.2614 310.122 21.1534 310.631 21.1534C311.142 21.1534 311.595 21.2614 311.99 21.4773C312.385 21.6932 312.695 21.9844 312.919 22.3509C313.143 22.7173 313.256 23.125 313.256 23.5739C313.256 23.8949 313.197 24.2088 313.081 24.5156C312.967 24.8196 312.768 25.1591 312.484 25.5341C312.203 25.9062 311.812 26.3608 311.312 26.8977L309.352 28.9943V29.0625H313.409V30H307.903Z" fill="#7D7B7A"/>
<path d="M316.963 6.90909C316.963 7.99621 316.764 8.93087 316.366 9.71307C315.969 10.492 315.424 11.0919 314.731 11.5128C314.041 11.9304 313.258 12.1392 312.379 12.1392C311.498 12.1392 310.71 11.9304 310.018 11.5128C309.328 11.0919 308.785 10.4903 308.387 9.7081C307.989 8.9259 307.79 7.9929 307.79 6.90909C307.79 5.82197 307.989 4.88897 308.387 4.11008C308.785 3.32789 309.328 2.72798 310.018 2.31037C310.71 1.88944 311.498 1.67898 312.379 1.67898C313.258 1.67898 314.041 1.88944 314.731 2.31037C315.424 2.72798 315.969 3.32789 316.366 4.11008C316.764 4.88897 316.963 5.82197 316.963 6.90909ZM315.442 6.90909C315.442 6.08049 315.308 5.38281 315.039 4.81605C314.774 4.24598 314.409 3.8151 313.945 3.52344C313.485 3.22846 312.963 3.08097 312.379 3.08097C311.793 3.08097 311.269 3.22846 310.808 3.52344C310.348 3.8151 309.983 4.24598 309.714 4.81605C309.449 5.38281 309.317 6.08049 309.317 6.90909C309.317 7.73769 309.449 8.43703 309.714 9.0071C309.983 9.57386 310.348 10.0047 310.808 10.2997C311.269 10.5914 311.793 10.7372 312.379 10.7372C312.963 10.7372 313.485 10.5914 313.945 10.2997C314.409 10.0047 314.774 9.57386 315.039 9.0071C315.308 8.43703 315.442 7.73769 315.442 6.90909ZM318.759 14.8636V4.36364H320.211V5.60156H320.335C320.421 5.44247 320.546 5.25852 320.708 5.04972C320.87 4.84091 321.096 4.65862 321.384 4.50284C321.672 4.34375 322.054 4.2642 322.528 4.2642C323.144 4.2642 323.694 4.41998 324.178 4.73153C324.662 5.04309 325.041 5.49219 325.317 6.07884C325.595 6.66548 325.734 7.37145 325.734 8.19673C325.734 9.02202 325.597 9.72964 325.322 10.3196C325.046 10.9062 324.669 11.3587 324.188 11.6768C323.707 11.9917 323.159 12.1491 322.542 12.1491C322.078 12.1491 321.699 12.0713 321.404 11.9155C321.112 11.7597 320.884 11.5774 320.718 11.3686C320.552 11.1598 320.425 10.9742 320.335 10.8118H320.246V14.8636H318.759ZM320.216 8.18182C320.216 8.71875 320.294 9.18939 320.449 9.59375C320.605 9.99811 320.831 10.3146 321.126 10.5433C321.421 10.7687 321.782 10.8814 322.209 10.8814C322.653 10.8814 323.025 10.7637 323.323 10.5284C323.621 10.2898 323.847 9.96662 323.999 9.55895C324.155 9.15128 324.233 8.69223 324.233 8.18182C324.233 7.67803 324.157 7.22562 324.004 6.82457C323.855 6.42353 323.63 6.10701 323.328 5.875C323.03 5.64299 322.657 5.52699 322.209 5.52699C321.778 5.52699 321.414 5.63802 321.116 5.86009C320.821 6.08215 320.597 6.39205 320.444 6.78977C320.292 7.1875 320.216 7.65151 320.216 8.18182ZM330.964 4.36364V5.55682H326.793V4.36364H330.964ZM327.912 2.53409H329.398V9.75781C329.398 10.0462 329.441 10.2633 329.528 10.4091C329.614 10.5516 329.725 10.6494 329.861 10.7024C330 10.7521 330.151 10.777 330.313 10.777C330.432 10.777 330.537 10.7687 330.626 10.7521C330.716 10.7356 330.785 10.7223 330.835 10.7124L331.104 11.9403C331.017 11.9735 330.895 12.0066 330.736 12.0398C330.577 12.0762 330.378 12.0961 330.139 12.0994C329.748 12.1061 329.383 12.0365 329.045 11.8906C328.707 11.7448 328.434 11.5194 328.225 11.2145C328.016 10.9096 327.912 10.5268 327.912 10.0661V2.53409ZM332.609 12V4.36364H334.095V12H332.609ZM333.359 3.18537C333.101 3.18537 332.879 3.09919 332.693 2.92685C332.511 2.75118 332.42 2.54238 332.42 2.30043C332.42 2.05516 332.511 1.84635 332.693 1.67401C332.879 1.49834 333.101 1.41051 333.359 1.41051C333.618 1.41051 333.838 1.49834 334.021 1.67401C334.206 1.84635 334.299 2.05516 334.299 2.30043C334.299 2.54238 334.206 2.75118 334.021 2.92685C333.838 3.09919 333.618 3.18537 333.359 3.18537ZM339.312 12.1541C338.596 12.1541 337.971 11.9901 337.437 11.6619C336.904 11.3338 336.489 10.8748 336.194 10.2848C335.899 9.69484 335.752 9.00544 335.752 8.21662C335.752 7.42448 335.899 6.73177 336.194 6.13849C336.489 5.54522 336.904 5.08452 337.437 4.75639C337.971 4.42827 338.596 4.2642 339.312 4.2642C340.028 4.2642 340.652 4.42827 341.186 4.75639C341.72 5.08452 342.134 5.54522 342.429 6.13849C342.724 6.73177 342.871 7.42448 342.871 8.21662C342.871 9.00544 342.724 9.69484 342.429 10.2848C342.134 10.8748 341.72 11.3338 341.186 11.6619C340.652 11.9901 340.028 12.1541 339.312 12.1541ZM339.317 10.9062C339.781 10.9062 340.165 10.7836 340.47 10.5384C340.775 10.2931 341 9.96662 341.146 9.55895C341.295 9.15128 341.37 8.70218 341.37 8.21165C341.37 7.72443 341.295 7.27699 341.146 6.86932C341 6.45833 340.775 6.12855 340.47 5.87997C340.165 5.63139 339.781 5.5071 339.317 5.5071C338.849 5.5071 338.461 5.63139 338.153 5.87997C337.848 6.12855 337.621 6.45833 337.472 6.86932C337.326 7.27699 337.253 7.72443 337.253 8.21165C337.253 8.70218 337.326 9.15128 337.472 9.55895C337.621 9.96662 337.848 10.2931 338.153 10.5384C338.461 10.7836 338.849 10.9062 339.317 10.9062ZM346.017 7.46591V12H344.531V4.36364H345.957V5.60653H346.052C346.228 5.20218 346.503 4.87737 346.877 4.6321C347.255 4.38684 347.731 4.2642 348.304 4.2642C348.824 4.2642 349.28 4.37358 349.671 4.59233C350.062 4.80777 350.366 5.12926 350.581 5.55682C350.796 5.98437 350.904 6.51302 350.904 7.14276V12H349.418V7.32173C349.418 6.76823 349.273 6.3357 348.985 6.02415C348.697 5.70928 348.301 5.55185 347.797 5.55185C347.452 5.55185 347.146 5.62642 346.877 5.77557C346.612 5.92472 346.402 6.14347 346.246 6.43182C346.093 6.71686 346.017 7.06155 346.017 7.46591ZM358.62 6.22798L357.273 6.46662C357.216 6.29427 357.127 6.13021 357.004 5.97443C356.885 5.81865 356.723 5.69105 356.517 5.59162C356.312 5.49219 356.055 5.44247 355.746 5.44247C355.326 5.44247 354.974 5.53693 354.692 5.72585C354.411 5.91146 354.27 6.15175 354.27 6.44673C354.27 6.70194 354.364 6.90743 354.553 7.06321C354.742 7.21899 355.047 7.34659 355.468 7.44602L356.681 7.72443C357.384 7.88684 357.907 8.13707 358.252 8.47514C358.597 8.81321 358.769 9.25237 358.769 9.79261C358.769 10.25 358.637 10.6577 358.371 11.0156C358.11 11.3703 357.743 11.6487 357.273 11.8509C356.805 12.053 356.263 12.1541 355.647 12.1541C354.792 12.1541 354.094 11.9718 353.554 11.6072C353.014 11.2393 352.682 10.7173 352.56 10.0412L353.996 9.82244C354.086 10.197 354.27 10.4804 354.548 10.6726C354.827 10.8615 355.19 10.956 355.637 10.956C356.124 10.956 356.514 10.8549 356.805 10.6527C357.097 10.4472 357.243 10.197 357.243 9.90199C357.243 9.66335 357.153 9.46283 356.974 9.30043C356.799 9.13802 356.529 9.01539 356.164 8.93253L354.871 8.64915C354.159 8.48674 353.632 8.22822 353.29 7.87358C352.952 7.51894 352.783 7.06984 352.783 6.52628C352.783 6.07552 352.909 5.68111 353.161 5.34304C353.413 5.00497 353.761 4.74148 354.205 4.55256C354.649 4.36032 355.158 4.2642 355.732 4.2642C356.557 4.2642 357.206 4.44318 357.68 4.80114C358.154 5.15578 358.468 5.63139 358.62 6.22798Z" fill="#3D3938"/>
<path d="M287 6V3.5H295V6" stroke="#3D3938" stroke-width="1.3" stroke-linecap="round" stroke-linejoin="round"/>
<path d="M295 10.5H287V14.75H295V10.5Z" stroke="#3D3938" stroke-width="1.3" stroke-linecap="round" stroke-linejoin="round"/>
<path d="M287 12H284.75V7C284.75 6.45 285.237 6 285.831 6H296.169C296.762 6 297.25 6.45 297.25 7V12H295" stroke="#3D3938" stroke-width="1.3" stroke-linecap="round" stroke-linejoin="round"/>
<path d="M294.75 9C295.164 9 295.5 8.66421 295.5 8.25C295.5 7.83579 295.164 7.5 294.75 7.5C294.336 7.5 294 7.83579 294 8.25C294 8.66421 294.336 9 294.75 9Z" fill="#3D3938"/>
<path d="M27.9716 71.2727V80H26.9148V72.3807H26.8636L24.733 73.7955V72.7216L26.9148 71.2727H27.9716Z" fill="#7D7B7A"/>
<path d="M30.6719 54.4929C30.6188 54.0223 30.4001 53.6577 30.0156 53.3991C29.6312 53.1373 29.1473 53.0064 28.5639 53.0064C28.1463 53.0064 27.785 53.0727 27.4801 53.2053C27.1752 53.3345 26.9382 53.5135 26.7692 53.7422C26.6035 53.9676 26.5206 54.2244 26.5206 54.5128C26.5206 54.7547 26.5769 54.9635 26.6896 55.1392C26.8056 55.3149 26.9564 55.4624 27.142 55.5817C27.331 55.6977 27.5331 55.7955 27.7486 55.875C27.964 55.9512 28.1712 56.0142 28.37 56.0639L29.3643 56.3224C29.6892 56.402 30.0223 56.5097 30.3636 56.6456C30.705 56.7815 31.0215 56.9605 31.3132 57.1825C31.6049 57.4046 31.8402 57.6797 32.0192 58.0078C32.2015 58.3359 32.2926 58.7287 32.2926 59.1861C32.2926 59.7628 32.1435 60.2749 31.8452 60.7223C31.5502 61.1697 31.121 61.5227 30.5575 61.7812C29.9974 62.0398 29.3196 62.169 28.5241 62.169C27.7618 62.169 27.1023 62.0481 26.5455 61.8061C25.9886 61.5642 25.5528 61.2211 25.2379 60.777C24.9231 60.3295 24.7491 59.7992 24.7159 59.1861H26.2571C26.2869 59.554 26.4063 59.8606 26.6151 60.1058C26.8272 60.3478 27.0973 60.5284 27.4254 60.6477C27.7569 60.7637 28.1198 60.8217 28.5142 60.8217C28.9484 60.8217 29.3345 60.7538 29.6726 60.6179C30.014 60.4787 30.2824 60.2865 30.478 60.0412C30.6735 59.7926 30.7713 59.5026 30.7713 59.1712C30.7713 58.8696 30.6851 58.6226 30.5128 58.4304C30.3438 58.2382 30.1134 58.0791 29.8217 57.9531C29.5334 57.8272 29.2069 57.7161 28.8423 57.62L27.6392 57.2919C26.8239 57.0698 26.1776 56.7434 25.7003 56.3125C25.2263 55.8816 24.9893 55.3116 24.9893 54.6023C24.9893 54.0156 25.1484 53.5036 25.4666 53.0661C25.7848 52.6286 26.2157 52.2888 26.7592 52.0469C27.3028 51.8016 27.916 51.679 28.5987 51.679C29.2881 51.679 29.8963 51.8 30.4233 52.0419C30.9536 52.2839 31.3712 52.617 31.6761 53.0412C31.9811 53.4621 32.1402 53.946 32.1534 54.4929H30.6719ZM37.5737 54.3636V55.5568H33.4025V54.3636H37.5737ZM34.5211 52.5341H36.0076V59.7578C36.0076 60.0462 36.0507 60.2633 36.1369 60.4091C36.2231 60.5516 36.3341 60.6494 36.47 60.7024C36.6092 60.7521 36.76 60.777 36.9224 60.777C37.0417 60.777 37.1461 60.7687 37.2356 60.7521C37.3251 60.7356 37.3947 60.7223 37.4444 60.7124L37.7129 61.9403C37.6267 61.9735 37.5041 62.0066 37.345 62.0398C37.1859 62.0762 36.987 62.0961 36.7484 62.0994C36.3573 62.1061 35.9927 62.0365 35.6547 61.8906C35.3166 61.7448 35.0431 61.5194 34.8343 61.2145C34.6255 60.9096 34.5211 60.5268 34.5211 60.0661V52.5341ZM41.4403 62.169C40.9564 62.169 40.5189 62.0795 40.1278 61.9006C39.7367 61.7183 39.4268 61.4548 39.1982 61.1101C38.9728 60.7654 38.8601 60.3428 38.8601 59.8423C38.8601 59.4115 38.9429 59.0568 39.1087 58.7784C39.2744 58.5 39.4981 58.2796 39.7798 58.1172C40.0616 57.9548 40.3764 57.8321 40.7244 57.7493C41.0724 57.6664 41.4271 57.6035 41.7884 57.5604C42.2457 57.5073 42.617 57.4643 42.902 57.4311C43.187 57.3946 43.3942 57.3366 43.5234 57.2571C43.6527 57.1776 43.7173 57.0483 43.7173 56.8693V56.8345C43.7173 56.4003 43.5947 56.0639 43.3494 55.8253C43.1075 55.5866 42.7462 55.4673 42.2656 55.4673C41.7652 55.4673 41.3707 55.5784 41.0824 55.8004C40.7973 56.0192 40.6001 56.2628 40.4908 56.5312L39.0938 56.2131C39.2595 55.7491 39.5014 55.3745 39.8196 55.0895C40.1411 54.8011 40.5107 54.5923 40.9283 54.4631C41.3459 54.3305 41.785 54.2642 42.2457 54.2642C42.5507 54.2642 42.8738 54.3007 43.2152 54.3736C43.5599 54.4432 43.8814 54.5724 44.1797 54.7614C44.4813 54.9503 44.7282 55.2204 44.9205 55.5717C45.1127 55.9197 45.2088 56.3722 45.2088 56.929V62H43.7571V60.956H43.6974C43.6013 61.1482 43.4571 61.3371 43.2649 61.5227C43.0727 61.7083 42.8258 61.8625 42.5241 61.9851C42.2225 62.1077 41.8613 62.169 41.4403 62.169ZM41.7635 60.9759C42.1745 60.9759 42.5258 60.8946 42.8175 60.7322C43.1125 60.5698 43.3362 60.3577 43.4886 60.0959C43.6444 59.8307 43.7223 59.5473 43.7223 59.2457V58.2614C43.6693 58.3144 43.5665 58.3641 43.4141 58.4105C43.2649 58.4536 43.0942 58.4917 42.902 58.5249C42.7098 58.5547 42.5225 58.5829 42.3402 58.6094C42.1579 58.6326 42.0054 58.6525 41.8828 58.669C41.5945 58.7055 41.331 58.7668 41.0923 58.853C40.857 58.9392 40.6681 59.0634 40.5256 59.2259C40.3864 59.3849 40.3168 59.5971 40.3168 59.8622C40.3168 60.2301 40.4527 60.5085 40.7244 60.6974C40.9962 60.883 41.3426 60.9759 41.7635 60.9759ZM50.823 54.3636V55.5568H46.5076V54.3636H50.823ZM47.6909 62V53.4787C47.6909 53.0014 47.7953 52.6053 48.0041 52.2905C48.2129 51.9723 48.4896 51.7353 48.8343 51.5795C49.179 51.4205 49.5536 51.3409 49.9579 51.3409C50.2562 51.3409 50.5114 51.3658 50.7235 51.4155C50.9357 51.4619 51.0931 51.505 51.1958 51.5447L50.8478 52.7479C50.7782 52.728 50.6887 52.7048 50.5794 52.6783C50.47 52.6484 50.3374 52.6335 50.1816 52.6335C49.8204 52.6335 49.5618 52.723 49.4061 52.902C49.2536 53.081 49.1774 53.3395 49.1774 53.6776V62H47.6909ZM55.9909 54.3636V55.5568H51.6756V54.3636H55.9909ZM52.8588 62V53.4787C52.8588 53.0014 52.9632 52.6053 53.1721 52.2905C53.3809 51.9723 53.6576 51.7353 54.0023 51.5795C54.347 51.4205 54.7215 51.3409 55.1259 51.3409C55.4242 51.3409 55.6794 51.3658 55.8915 51.4155C56.1036 51.4619 56.2611 51.505 56.3638 51.5447L56.0158 52.7479C55.9462 52.728 55.8567 52.7048 55.7473 52.6783C55.638 52.6484 55.5054 52.6335 55.3496 52.6335C54.9883 52.6335 54.7298 52.723 54.574 52.902C54.4216 53.081 54.3453 53.3395 54.3453 53.6776V62H52.8588Z" fill="#3D3938"/>
<path d="M8 60C10.2091 60 12 58.2091 12 56C12 53.7909 10.2091 52 8 52C5.79086 52 4 53.7909 4 56C4 58.2091 5.79086 60 8 60Z" stroke="#3D3938" stroke-width="1.3" stroke-miterlimit="10"/>
<path d="M1.9375 63.5001C2.55184 62.4358 3.43552 61.552 4.49972 60.9375C5.56392 60.323 6.77113 59.9995 8 59.9995C9.22887 59.9995 10.4361 60.323 11.5003 60.9375C12.5645 61.552 13.4482 62.4358 14.0625 63.5001" stroke="#3D3938" stroke-width="1.3" stroke-linecap="round" stroke-linejoin="round"/>
<path d="M114.972 71.2727V80H113.915V72.3807H113.864L111.733 73.7955V72.7216L113.915 71.2727H114.972Z" fill="#7D7B7A"/>
<path d="M112.119 51.8182H113.983L117.224 59.733H117.344L120.585 51.8182H122.45V62H120.988V54.6321H120.893L117.891 61.9851H116.678L113.675 54.6271H113.58V62H112.119V51.8182ZM126.786 62.169C126.302 62.169 125.865 62.0795 125.474 61.9006C125.082 61.7183 124.773 61.4548 124.544 61.1101C124.318 60.7654 124.206 60.3428 124.206 59.8423C124.206 59.4115 124.289 59.0568 124.454 58.7784C124.62 58.5 124.844 58.2796 125.126 58.1172C125.407 57.9548 125.722 57.8321 126.07 57.7493C126.418 57.6664 126.773 57.6035 127.134 57.5604C127.591 57.5073 127.963 57.4643 128.248 57.4311C128.533 57.3946 128.74 57.3366 128.869 57.2571C128.998 57.1776 129.063 57.0483 129.063 56.8693V56.8345C129.063 56.4003 128.94 56.0639 128.695 55.8253C128.453 55.5866 128.092 55.4673 127.611 55.4673C127.111 55.4673 126.716 55.5784 126.428 55.8004C126.143 56.0192 125.946 56.2628 125.836 56.5312L124.439 56.2131C124.605 55.7491 124.847 55.3745 125.165 55.0895C125.487 54.8011 125.856 54.5923 126.274 54.4631C126.692 54.3305 127.131 54.2642 127.591 54.2642C127.896 54.2642 128.22 54.3007 128.561 54.3736C128.906 54.4432 129.227 54.5724 129.525 54.7614C129.827 54.9503 130.074 55.2204 130.266 55.5717C130.458 55.9197 130.555 56.3722 130.555 56.929V62H129.103V60.956H129.043C128.947 61.1482 128.803 61.3371 128.611 61.5227C128.418 61.7083 128.171 61.8625 127.87 61.9851C127.568 62.1077 127.207 62.169 126.786 62.169ZM127.109 60.9759C127.52 60.9759 127.872 60.8946 128.163 60.7322C128.458 60.5698 128.682 60.3577 128.834 60.0959C128.99 59.8307 129.068 59.5473 129.068 59.2457V58.2614C129.015 58.3144 128.912 58.3641 128.76 58.4105C128.611 58.4536 128.44 58.4917 128.248 58.5249C128.055 58.5547 127.868 58.5829 127.686 58.6094C127.504 58.6326 127.351 58.6525 127.229 58.669C126.94 58.7055 126.677 58.7668 126.438 58.853C126.203 58.9392 126.014 59.0634 125.871 59.2259C125.732 59.3849 125.662 59.5971 125.662 59.8622C125.662 60.2301 125.798 60.5085 126.07 60.6974C126.342 60.883 126.688 60.9759 127.109 60.9759ZM132.534 62V54.3636H134.021V62H132.534ZM133.285 53.1854C133.027 53.1854 132.805 53.0992 132.619 52.9268C132.437 52.7512 132.346 52.5424 132.346 52.3004C132.346 52.0552 132.437 51.8464 132.619 51.674C132.805 51.4983 133.027 51.4105 133.285 51.4105C133.544 51.4105 133.764 51.4983 133.946 51.674C134.132 51.8464 134.225 52.0552 134.225 52.3004C134.225 52.5424 134.132 52.7512 133.946 52.9268C133.764 53.0992 133.544 53.1854 133.285 53.1854ZM137.507 51.8182V62H136.021V51.8182H137.507ZM139.626 62V51.8182H141.113V55.6016H141.202C141.289 55.4425 141.413 55.2585 141.575 55.0497C141.738 54.8409 141.963 54.6586 142.251 54.5028C142.54 54.3438 142.921 54.2642 143.395 54.2642C144.011 54.2642 144.562 54.42 145.045 54.7315C145.529 55.0431 145.909 55.4922 146.184 56.0788C146.462 56.6655 146.602 57.3714 146.602 58.1967C146.602 59.022 146.464 59.7296 146.189 60.3196C145.914 60.9062 145.536 61.3587 145.055 61.6768C144.575 61.9917 144.026 62.1491 143.41 62.1491C142.946 62.1491 142.566 62.0713 142.271 61.9155C141.98 61.7597 141.751 61.5774 141.585 61.3686C141.42 61.1598 141.292 60.9742 141.202 60.8118H141.078V62H139.626ZM141.083 58.1818C141.083 58.7187 141.161 59.1894 141.317 59.5938C141.473 59.9981 141.698 60.3146 141.993 60.5433C142.288 60.7687 142.649 60.8814 143.077 60.8814C143.521 60.8814 143.892 60.7637 144.19 60.5284C144.489 60.2898 144.714 59.9666 144.866 59.5589C145.022 59.1513 145.1 58.6922 145.1 58.1818C145.1 57.678 145.024 57.2256 144.871 56.8246C144.722 56.4235 144.497 56.107 144.195 55.875C143.897 55.643 143.524 55.527 143.077 55.527C142.646 55.527 142.281 55.638 141.983 55.8601C141.688 56.0821 141.464 56.392 141.312 56.7898C141.159 57.1875 141.083 57.6515 141.083 58.1818ZM151.487 62.1541C150.771 62.1541 150.147 61.9901 149.613 61.6619C149.079 61.3338 148.665 60.8748 148.37 60.2848C148.075 59.6948 147.928 59.0054 147.928 58.2166C147.928 57.4245 148.075 56.7318 148.37 56.1385C148.665 55.5452 149.079 55.0845 149.613 54.7564C150.147 54.4283 150.771 54.2642 151.487 54.2642C152.203 54.2642 152.828 54.4283 153.362 54.7564C153.895 55.0845 154.31 55.5452 154.605 56.1385C154.9 56.7318 155.047 57.4245 155.047 58.2166C155.047 59.0054 154.9 59.6948 154.605 60.2848C154.31 60.8748 153.895 61.3338 153.362 61.6619C152.828 61.9901 152.203 62.1541 151.487 62.1541ZM151.492 60.9062C151.956 60.9062 152.341 60.7836 152.646 60.5384C152.951 60.2931 153.176 59.9666 153.322 59.5589C153.471 59.1513 153.546 58.7022 153.546 58.2116C153.546 57.7244 153.471 57.277 153.322 56.8693C153.176 56.4583 152.951 56.1286 152.646 55.88C152.341 55.6314 151.956 55.5071 151.492 55.5071C151.025 55.5071 150.637 55.6314 150.329 55.88C150.024 56.1286 149.797 56.4583 149.648 56.8693C149.502 57.277 149.429 57.7244 149.429 58.2116C149.429 58.7022 149.502 59.1513 149.648 59.5589C149.797 59.9666 150.024 60.2931 150.329 60.5384C150.637 60.7836 151.025 60.9062 151.492 60.9062ZM157.579 54.3636L159.264 57.3366L160.964 54.3636H162.59L160.209 58.1818L162.61 62H160.984L159.264 59.1463L157.549 62H155.918L158.295 58.1818L155.948 54.3636H157.579Z" fill="#3D3938"/>
<path d="M101 53.5L95 59L89 53.5" stroke="#3D3938" stroke-width="1.3" stroke-linecap="round" stroke-linejoin="round"/>
<path d="M89 53.5H101V62C101 62.1326 100.947 62.2598 100.854 62.3536C100.76 62.4473 100.633 62.5 100.5 62.5H89.5C89.3674 62.5 89.2402 62.4473 89.1464 62.3536C89.0527 62.2598 89 62.1326 89 62V53.5Z" stroke="#3D3938" stroke-width="1.3" stroke-linecap="round" stroke-linejoin="round"/>
<path d="M93.9062 58L89.1562 62.3562" stroke="#3D3938" stroke-width="1.3" stroke-linecap="round" stroke-linejoin="round"/>
<path d="M100.844 62.3562L96.0938 58" stroke="#3D3938" stroke-width="1.3" stroke-linecap="round" stroke-linejoin="round"/>
</svg>
