<svg width="14" height="14" viewBox="0 0 14 14" fill="none" xmlns="http://www.w3.org/2000/svg">
<path d="M7 0.5C5.71442 0.5 4.45772 0.881218 3.3888 1.59545C2.31988 2.30968 1.48676 3.32484 0.994786 4.51256C0.502816 5.70028 0.374095 7.00721 0.624899 8.26809C0.875703 9.52896 1.49477 10.6872 2.40381 11.5962C3.31285 12.5052 4.47104 13.1243 5.73192 13.3751C6.99279 13.6259 8.29973 13.4972 9.48744 13.0052C10.6752 12.5132 11.6903 11.6801 12.4046 10.6112C13.1188 9.54229 13.5 8.28558 13.5 7C13.4981 5.27669 12.8126 3.62453 11.594 2.40596C10.3755 1.1874 8.72331 0.501952 7 0.5V0.5ZM7 12.5C5.91221 12.5 4.84884 12.1774 3.94437 11.5731C3.0399 10.9687 2.33495 10.1098 1.91867 9.10476C1.50238 8.09977 1.39347 6.9939 1.60568 5.927C1.8179 4.86011 2.34173 3.8801 3.11092 3.11091C3.8801 2.34172 4.86011 1.8179 5.92701 1.60568C6.9939 1.39346 8.09977 1.50238 9.10476 1.91866C10.1098 2.33494 10.9687 3.03989 11.5731 3.94436C12.1774 4.84883 12.5 5.9122 12.5 7C12.4983 8.45818 11.9184 9.85617 10.8873 10.8873C9.85617 11.9184 8.45819 12.4983 7 12.5V12.5ZM8 10C8 10.1326 7.94732 10.2598 7.85356 10.3536C7.75979 10.4473 7.63261 10.5 7.5 10.5H7C6.86739 10.5 6.74022 10.4473 6.64645 10.3536C6.55268 10.2598 6.5 10.1326 6.5 10V7C6.36739 7 6.24022 6.94732 6.14645 6.85355C6.05268 6.75979 6 6.63261 6 6.5C6 6.36739 6.05268 6.24021 6.14645 6.14645C6.24022 6.05268 6.36739 6 6.5 6H7C7.13261 6 7.25979 6.05268 7.35356 6.14645C7.44732 6.24021 7.5 6.36739 7.5 6.5V9.5C7.63261 9.5 7.75979 9.55268 7.85356 9.64645C7.94732 9.74021 8 9.86739 8 10ZM6.125 4.25C6.125 4.10166 6.16899 3.95666 6.2514 3.83332C6.33381 3.70999 6.45095 3.61386 6.58799 3.55709C6.72503 3.50032 6.87583 3.48547 7.02132 3.51441C7.16681 3.54335 7.30044 3.61478 7.40533 3.71967C7.51022 3.82456 7.58165 3.9582 7.61059 4.10368C7.63953 4.24917 7.62468 4.39997 7.56791 4.53701C7.51115 4.67406 7.41502 4.79119 7.29168 4.8736C7.16834 4.95601 7.02334 5 6.875 5C6.67609 5 6.48532 4.92098 6.34467 4.78033C6.20402 4.63968 6.125 4.44891 6.125 4.25Z" fill="#524F4E"/>
</svg>
