<svg width="16" height="16" viewBox="0 0 16 16" fill="none" xmlns="http://www.w3.org/2000/svg">
<path d="M8 4C7.50555 4 7.0222 4.14662 6.61107 4.42133C6.19995 4.69603 5.87952 5.08648 5.6903 5.54329C5.50108 6.00011 5.45157 6.50277 5.54804 6.98773C5.6445 7.47268 5.8826 7.91814 6.23223 8.26777C6.58186 8.6174 7.02732 8.8555 7.51227 8.95196C7.99723 9.04843 8.49989 8.99892 8.95671 8.8097C9.41352 8.62048 9.80397 8.30005 10.0787 7.88893C10.3534 7.4778 10.5 6.99445 10.5 6.5C10.4992 5.83719 10.2356 5.20175 9.76693 4.73307C9.29825 4.2644 8.66281 4.00076 8 4ZM8 8C7.70333 8 7.41332 7.91203 7.16664 7.7472C6.91997 7.58238 6.72771 7.34811 6.61418 7.07403C6.50065 6.79994 6.47094 6.49834 6.52882 6.20736C6.5867 5.91639 6.72956 5.64912 6.93934 5.43934C7.14912 5.22956 7.41639 5.0867 7.70736 5.02882C7.99834 4.97094 8.29994 5.00065 8.57403 5.11418C8.84811 5.22771 9.08238 5.41997 9.2472 5.66664C9.41203 5.91332 9.5 6.20333 9.5 6.5C9.49955 6.89769 9.34138 7.27896 9.06017 7.56017C8.77896 7.84137 8.39769 7.99955 8 8ZM8 1C6.54182 1.00165 5.14383 1.58165 4.11274 2.61274C3.08165 3.64383 2.50165 5.04182 2.5 6.5C2.5 8.46225 3.40687 10.5424 5.12269 12.5156C5.89481 13.4072 6.76367 14.2101 7.71325 14.9096C7.7973 14.9685 7.89741 15 8 15C8.10259 15 8.2027 14.9685 8.28675 14.9096C9.23633 14.2101 10.1052 13.4072 10.8773 12.5156C12.5931 10.5424 13.5 8.46231 13.5 6.5C13.4983 5.04182 12.9184 3.64383 11.8873 2.61274C10.8562 1.58165 9.45818 1.00165 8 1ZM8 13.8737C6.96669 13.0632 3.5 10.0769 3.5 6.5C3.5 5.30653 3.97411 4.16193 4.81802 3.31802C5.66193 2.47411 6.80653 2 8 2C9.19347 2 10.3381 2.47411 11.182 3.31802C12.0259 4.16193 12.5 5.30653 12.5 6.5C12.5 10.077 9.03312 13.0634 8 13.8737Z" fill="#1C1C1E"/>
</svg>
