<svg width="48" height="48" viewBox="0 0 48 48" fill="none" xmlns="http://www.w3.org/2000/svg">
<g clip-path="url(#clip0_949_14659)">
<path d="M2.06635 33.9221C6.10628 42.2596 14.382 48 23.9407 48C33.4995 48 41.6515 43.3417 45.2225 34.4734C38.7143 38.9771 31.8712 40.7137 23.8016 40.7137C15.732 40.7137 8.41481 38.1836 2.06635 33.9272V33.9221Z" fill="#915741"/>
<path d="M40.018 33.6953C40.018 33.6953 19.5143 36.5964 0.0875859 21.694C0.0875859 21.694 -0.412253 27.115 0.968745 30.5211C0.968745 30.5211 21.4467 44.5526 40.018 33.7005V33.6953Z" fill="#915741"/>
<path d="M23.9974 0C12.496 0 2.88566 8.01804 0.546204 18.7208C4.64282 21.3643 9.18775 23.1781 13.9233 24.1262C13.8357 21.658 14.1501 19.6122 14.7169 17.9581C16.6596 12.3208 22.7607 9.1723 28.3414 10.9243C33.9014 12.6712 34.7001 18.8444 34.7001 18.8444C27.7848 18.9063 27.8467 24.2138 27.8828 24.894H47.9382C47.9536 24.523 47.9948 24.152 47.9948 23.7758C47.9948 10.6512 37.2509 0 23.9974 0Z" fill="#915741"/>
</g>
<defs>
<clipPath id="clip0_949_14659">
<rect width="47.9948" height="48" fill="white"/>
</clipPath>
</defs>
</svg>
