<svg width="168" height="32" viewBox="0 0 168 32" fill="none" xmlns="http://www.w3.org/2000/svg">
<g clip-path="url(#clip0_3245_14991)">
<path d="M128.925 31.8239C124.347 31.8239 120.389 29.0691 118.45 25.0742C121.49 27.1174 125.093 28.3271 128.859 28.3271C132.624 28.3271 135.999 27.4935 139.115 25.3334C137.404 29.5876 133.593 31.8188 128.925 31.8188V31.8239Z" fill="#915741"/>
<path d="M136.618 24.9644C136.618 24.9644 126.803 26.352 117.501 19.2109C117.501 19.2109 117.262 21.8132 117.922 23.4447C117.922 23.4447 127.727 30.1741 136.618 24.9695V24.9644Z" fill="#915741"/>
<path d="M128.95 8.80859C123.443 8.80859 118.846 12.6561 117.724 17.7845C119.688 19.05 121.86 19.9191 124.128 20.3766C124.088 19.1923 124.235 18.2114 124.509 17.4185C125.438 14.7146 128.361 13.205 131.03 14.0487C133.694 14.8874 134.075 17.8454 134.075 17.8454C130.766 17.8759 130.792 20.4223 130.812 20.7476H140.413C140.424 20.5697 140.439 20.3918 140.439 20.2139C140.439 13.9166 135.293 8.80859 128.95 8.80859Z" fill="#915741"/>
<path d="M70.58 10.5428L69.7224 12.4844C68.7835 11.722 67.9513 11.2391 67.2307 11.0307C66.2918 10.7156 65.3479 10.5682 64.3939 10.5581C63.247 10.5479 62.3081 10.8071 61.6028 11.1121C59.8469 11.8643 59.4003 14.2277 60.8263 15.4983L60.8568 15.5238C61.5419 16.1184 62.638 16.8198 64.3939 17.5466C66.2005 18.2938 67.3931 18.9545 68.0477 19.3662C70.2806 20.8249 71.4021 22.6902 71.4173 24.9672C71.4173 27.0917 70.58 28.7944 68.9053 30.0752C67.2307 31.356 63.6022 31.9964 60.7553 31.9964C58.1164 31.9964 55.7059 31.4628 53.5288 30.4005L54.2443 28.4793C55.305 29.2722 56.2083 29.8058 56.9593 30.0955C58.0606 30.5022 59.2531 30.7105 60.532 30.7105C61.1714 30.7105 62.029 30.6495 62.8258 30.5276C64.2163 30.3141 65.4494 29.4399 65.9823 28.1387C66.3883 27.1527 66.4644 25.9583 65.15 25.0994C64.2416 24.5098 60.3493 23.107 60.3493 23.107C60.2935 23.0816 60.2529 23.0612 60.2173 23.046C60.1818 23.0307 60.1361 23.0155 60.0752 22.9952C60.0144 22.9748 59.9636 22.9494 59.923 22.924C58.4513 22.2582 57.4008 21.6839 56.7614 21.2061C55.0208 19.8846 54.1479 18.1108 54.1479 15.8897C54.1479 14.8681 54.3255 13.9634 54.6909 13.1705C55.0512 12.3827 55.5181 11.7423 56.0865 11.2595C56.6599 10.7766 57.3349 10.3751 58.1164 10.065C58.8979 9.74993 59.6794 9.53646 60.4508 9.41956C60.4508 9.41956 65.9163 8.46403 70.58 10.5326V10.5428Z" fill="#42271C"/>
<path d="M80.0647 7.27319C79.0649 7.27319 78.2073 6.91741 77.4867 6.21093C76.7661 5.50445 76.4058 4.65565 76.4058 3.67471C76.4058 2.69377 76.761 1.79416 77.4765 1.07751C78.187 0.360864 79.0497 0 80.0647 0C81.0796 0 81.9829 0.355781 82.7086 1.06226C83.4343 1.76874 83.7997 2.64295 83.7997 3.66963C83.7997 4.69632 83.4343 5.5197 82.7086 6.21601C81.9829 6.91741 81.0999 7.26811 80.0647 7.26811V7.27319ZM76.5123 31.5121L76.7356 29.0165V11.9898L76.5123 9.86531L83.5916 9.49937V28.9962L83.7946 31.5121H76.5073H76.5123Z" fill="#42271C"/>
<path d="M112.528 29.0149L112.507 0.0898438L105.509 0.476121L105.712 2.55998V9.57396C104.855 9.35541 102.053 9.24868 100.962 9.24868C97.1259 9.24868 94.1775 10.316 92.1273 12.4456C90.072 14.5803 89.0469 17.5841 89.0469 21.4672C89.0469 24.9132 89.803 27.5308 91.3204 29.3148C92.8377 31.0987 94.9285 31.9933 97.5979 31.9933C100.414 31.9933 104.449 30.7277 106.042 28.1915V28.2118L106.103 31.5003H112.736L112.533 29.0047L112.528 29.0149ZM100.419 29.0962C98.623 29.1216 97.0244 27.8967 96.593 26.1483L96.5829 26.1127C96.2886 24.898 96.1465 23.2919 96.1465 21.2893C96.1465 19.5308 96.2378 18.006 96.4205 16.7099V16.6693C96.9381 13.0809 100.196 10.4634 103.794 10.8294C104.251 10.8751 105.195 10.9513 105.712 11.0682V27.363C103.962 28.6998 101.769 29.0809 100.419 29.1013V29.0962Z" fill="#915741"/>
<path d="M166.325 10.8256C167.335 11.8472 167.797 13.5042 167.797 15.71V29.0366L168 31.5118H160.692L160.895 29.0366V16.508C160.895 16.4775 160.895 16.447 160.895 16.4165C160.895 12.9857 158.733 12.325 156.424 12.7062C154.323 13.0569 152.349 14.5308 152.349 14.5308V29.0366L152.552 31.5118H145.245L145.468 29.0366V12.0099L145.265 9.88536L152.466 9.53974L152.344 12.7977C152.344 12.7977 161.281 5.73288 166.32 10.8256H166.325Z" fill="#915741"/>
<path d="M34.4475 20.3119H48.9664L49.007 20.2103C49.1593 19.7071 49.2303 19.0921 49.2303 18.3704C49.2303 17.0896 49.0426 15.9104 48.667 14.8329C48.2915 13.7554 47.718 12.7999 46.9619 11.9511C45.9368 10.8024 44.5311 10.0807 43.2116 9.6334C40.5829 8.73886 37.7208 8.77444 35.0768 9.60799C33.0926 10.2331 31.286 11.4987 30.1492 12.7439C28.1853 14.899 27.1855 17.4555 27.1855 20.9422V20.9879C27.1957 23.9866 28.5253 26.8532 30.7683 28.8354C32.6206 30.4669 35.3711 32.0121 39.1468 32.0019C42.5469 31.9917 45.5359 30.9549 48.1037 28.8558L47.6521 27.9765C46.0738 28.8354 44.4144 29.3386 42.6737 29.2624C34.3765 28.9066 34.4425 20.3119 34.4425 20.3119H34.4475ZM44.0439 19.1531H34.3613V15.6715C34.3613 13.0387 36.5282 10.899 39.2026 10.899C41.877 10.899 44.0439 13.0337 44.0439 15.6715V19.1531Z" fill="#42271C"/>
<path d="M23.7042 29.078L19.5023 22.1301C19.2029 21.6523 18.9898 21.3168 18.8578 21.1186C18.7259 20.9204 18.4924 20.6053 18.1423 20.1783C17.7972 19.7514 17.442 19.4261 17.0816 19.2076C16.7213 18.989 16.3357 18.8518 15.9297 18.801V18.7196C17.7921 18.4198 19.3856 17.5354 20.705 16.0716C22.0245 14.6078 22.6842 13.0017 22.6842 11.2584C22.6842 10.3181 22.5928 9.4744 22.4101 8.72217C22.2275 7.97503 21.9737 7.32954 21.654 6.79079C21.3343 6.25203 20.9182 5.78444 20.4005 5.39308C19.8829 4.99663 19.3298 4.68151 18.736 4.44263C18.1423 4.20375 17.447 4.01569 16.6452 3.8683C15.8434 3.72599 15.0416 3.62434 14.2347 3.57351C13.4329 3.5176 12.5144 3.49219 11.4791 3.49219C9.05845 3.49219 3.40009 3.5481 0 3.65483L0.20299 5.88101V29.0373L0 31.5125H6.9981L6.79511 29.0373V19.0195H11.0325L16.6858 28.9916L17.8479 31.5074H25.3992L23.7042 29.0729V29.078ZM15.8536 12.3816C15.8536 15.2025 13.5699 17.4896 10.7534 17.4896H6.79003V5.02205H10.7534C13.5699 5.02205 15.8536 7.30921 15.8536 10.1301V12.3867V12.3816Z" fill="#42271C"/>
</g>
<defs>
<clipPath id="clip0_3245_14991">
<rect width="168" height="32" fill="white"/>
</clipPath>
</defs>
</svg>
