<svg width="12" height="12" viewBox="0 0 12 12" fill="none" xmlns="http://www.w3.org/2000/svg">
<path d="M10.5227 6.39743L7.14773 9.77242C7.04196 9.87649 6.89934 9.93455 6.75095 9.93395C6.60256 9.93334 6.46042 9.87413 6.35549 9.7692C6.25056 9.66427 6.19135 9.52213 6.19074 9.37374C6.19014 9.22535 6.2482 9.08274 6.35227 8.97696L8.76698 6.56219H1.875C1.72582 6.56219 1.58274 6.50293 1.47725 6.39744C1.37176 6.29195 1.3125 6.14887 1.3125 5.99969C1.3125 5.85051 1.37176 5.70743 1.47725 5.60194C1.58274 5.49645 1.72582 5.43719 1.875 5.43719H8.76703L6.35227 3.02242C6.2482 2.91665 6.19014 2.77403 6.19074 2.62564C6.19135 2.47725 6.25056 2.33511 6.35549 2.23018C6.46042 2.12525 6.60256 2.06604 6.75095 2.06543C6.89934 2.06483 7.04196 2.12289 7.14773 2.22696L10.5227 5.60196C10.6282 5.70744 10.6875 5.85051 10.6875 5.99969C10.6875 6.14887 10.6282 6.29194 10.5227 6.39743Z" fill="#CB7D61"/>
</svg>
