<svg width="40" height="40" viewBox="0 0 40 40" fill="none" xmlns="http://www.w3.org/2000/svg">
<rect width="40" height="40" rx="2" transform="matrix(-4.37114e-08 -1 -1 4.37114e-08 40 40)" fill="#EED382"/>
<path d="M6.25002 25C6.25001 25.2472 6.32331 25.4889 6.46066 25.6944C6.59802 25.9 6.79325 26.0602 7.02166 26.1548C7.25007 26.2495 7.50141 26.2742 7.7439 26.226C7.98638 26.1777 8.20911 26.0587 8.38393 25.8839L20 14.2678L31.6161 25.8839C31.8505 26.1183 32.1685 26.25 32.5 26.25C32.8316 26.25 33.1495 26.1183 33.3839 25.8839C33.6184 25.6494 33.7501 25.3315 33.7501 25C33.7501 24.6684 33.6184 24.3505 33.3839 24.116L20.8839 11.616C20.7679 11.5 20.6301 11.4079 20.4784 11.3451C20.3267 11.2822 20.1642 11.2499 20 11.2499C19.8359 11.2499 19.6733 11.2822 19.5217 11.3451C19.37 11.4079 19.2322 11.5 19.1161 11.616L6.61611 24.116C6.49987 24.232 6.40768 24.3698 6.34486 24.5215C6.28203 24.6732 6.2498 24.8358 6.25002 25Z" fill="#63382C"/>
</svg>
