<svg width="40" height="40" viewBox="0 0 40 40" fill="none" xmlns="http://www.w3.org/2000/svg">
<rect width="40" height="40" rx="2" transform="matrix(-4.37114e-08 1 1 4.37114e-08 0 0)" fill="white"/>
<path d="M33.75 15C33.75 14.7528 33.6767 14.5111 33.5393 14.3056C33.402 14.1 33.2068 13.9398 32.9783 13.8452C32.7499 13.7505 32.4986 13.7258 32.2561 13.774C32.0136 13.8223 31.7909 13.9413 31.6161 14.1161L20 25.7322L8.38388 14.1161C8.14945 13.8817 7.8315 13.75 7.49997 13.75C7.16844 13.75 6.85049 13.8817 6.61606 14.1161C6.38164 14.3506 6.24994 14.6685 6.24994 15C6.24994 15.3316 6.38164 15.6495 6.61606 15.884L19.1161 28.384C19.2321 28.5 19.3699 28.5921 19.5216 28.6549C19.6733 28.7178 19.8358 28.7501 20 28.7501C20.1641 28.7501 20.3267 28.7178 20.4783 28.6549C20.63 28.5921 20.7678 28.5 20.8839 28.384L33.3839 15.884C33.5001 15.768 33.5923 15.6302 33.6551 15.4785C33.718 15.3268 33.7502 15.1642 33.75 15Z" fill="#63382C"/>
</svg>
