<svg width="24" height="24" viewBox="0 0 24 24" fill="none" xmlns="http://www.w3.org/2000/svg">
<path d="M19.5 12.75H4.5C4.10231 12.7504 3.72104 12.9086 3.43983 13.1898C3.15863 13.471 3.00045 13.8523 3 14.25V18C3.00045 18.3977 3.15863 18.779 3.43983 19.0602C3.72104 19.3414 4.10231 19.4996 4.5 19.5H19.5C19.8977 19.4996 20.279 19.3414 20.5602 19.0602C20.8414 18.779 20.9996 18.3977 21 18V14.25C20.9996 13.8523 20.8414 13.471 20.5602 13.1898C20.279 12.9086 19.8977 12.7504 19.5 12.75ZM19.5 18H4.5V14.25H19.5L19.5009 18H19.5ZM19.5 4.5H4.5C4.10231 4.50045 3.72104 4.65863 3.43983 4.93983C3.15863 5.22104 3.00045 5.60231 3 6V9.75C3.00045 10.1477 3.15863 10.529 3.43983 10.8102C3.72104 11.0914 4.10231 11.2496 4.5 11.25H19.5C19.8977 11.2496 20.279 11.0914 20.5602 10.8102C20.8414 10.529 20.9996 10.1477 21 9.75V6C20.9996 5.60231 20.8414 5.22104 20.5602 4.93983C20.279 4.65863 19.8977 4.50045 19.5 4.5ZM19.5 9.75H4.5V6H19.5L19.5009 9.75H19.5Z" fill="#63382C"/>
</svg>
