<svg width="16" height="17" viewBox="0 0 16 17" fill="none" xmlns="http://www.w3.org/2000/svg">
<path d="M13.4995 3.5H10.9998V3C10.9993 2.60231 10.8411 2.22104 10.5599 1.93983C10.2787 1.65863 9.89745 1.50045 9.49976 1.5H6.49976C6.10207 1.50045 5.7208 1.65863 5.43959 1.93983C5.15839 2.22104 5.00021 2.60231 4.99976 3V3.5H2.49951C2.3669 3.5 2.23973 3.55268 2.14596 3.64645C2.05219 3.74021 1.99951 3.86739 1.99951 4C1.99951 4.13261 2.05219 4.25979 2.14596 4.35355C2.23973 4.44732 2.3669 4.5 2.49951 4.5H2.99951V13.5C2.99981 13.7651 3.10526 14.0193 3.29273 14.2068C3.48021 14.3942 3.73439 14.4997 3.99951 14.5H11.9995C12.2646 14.4997 12.5188 14.3942 12.7063 14.2068C12.8938 14.0193 12.9992 13.7651 12.9995 13.5V4.5H13.4995C13.6321 4.5 13.7593 4.44732 13.8531 4.35355C13.9468 4.25979 13.9995 4.13261 13.9995 4C13.9995 3.86739 13.9468 3.74021 13.8531 3.64645C13.7593 3.55268 13.6321 3.5 13.4995 3.5ZM5.99976 3C5.99993 2.86744 6.05266 2.74036 6.14639 2.64663C6.24012 2.5529 6.3672 2.50017 6.49976 2.5H9.49976C9.63232 2.50017 9.7594 2.5529 9.85313 2.64663C9.94686 2.74036 9.9996 2.86744 9.99976 3V3.5H5.99976V3ZM11.9995 13.5H3.99951V4.5H11.9995V13.5ZM6.99976 7V11C6.99976 11.1326 6.94708 11.2598 6.85331 11.3536C6.75955 11.4473 6.63237 11.5 6.49976 11.5C6.36715 11.5 6.23998 11.4473 6.14621 11.3536C6.05244 11.2598 5.99976 11.1326 5.99976 11V7C5.99976 6.86739 6.05244 6.74021 6.14621 6.64645C6.23998 6.55268 6.36715 6.5 6.49976 6.5C6.63237 6.5 6.75955 6.55268 6.85331 6.64645C6.94708 6.74021 6.99976 6.86739 6.99976 7ZM9.99976 7V11C9.99976 11.1326 9.94708 11.2598 9.85332 11.3536C9.75955 11.4473 9.63237 11.5 9.49976 11.5C9.36715 11.5 9.23998 11.4473 9.14621 11.3536C9.05244 11.2598 8.99976 11.1326 8.99976 11V7C8.99976 6.86739 9.05244 6.74021 9.14621 6.64645C9.23998 6.55268 9.36715 6.5 9.49976 6.5C9.63237 6.5 9.75955 6.55268 9.85332 6.64645C9.94708 6.74021 9.99976 6.86739 9.99976 7Z" fill="#A9A7A7"/>
</svg>
