<svg width="12" height="13" viewBox="0 0 12 13" fill="none" xmlns="http://www.w3.org/2000/svg">
<path d="M11.4996 2H8.99988V1.5C8.99944 1.10231 8.84126 0.721041 8.56005 0.439833C8.27884 0.158625 7.89757 0.000446645 7.49988 0H4.49988C4.1022 0.000446645 3.72092 0.158625 3.43972 0.439833C3.15851 0.721041 3.00033 1.10231 2.99988 1.5V2H0.499634C0.367025 2 0.239849 2.05268 0.14608 2.14645C0.0523122 2.24021 -0.000366211 2.36739 -0.000366211 2.5C-0.000366211 2.63261 0.0523122 2.75979 0.14608 2.85355C0.239849 2.94732 0.367025 3 0.499634 3H0.999634V12C0.999931 12.2651 1.10538 12.5193 1.29286 12.7068C1.48033 12.8942 1.73451 12.9997 1.99963 13H9.99963C10.2648 12.9997 10.5189 12.8942 10.7064 12.7068C10.8939 12.5193 10.9993 12.2651 10.9996 12V3H11.4996C11.6322 3 11.7594 2.94732 11.8532 2.85355C11.947 2.75979 11.9996 2.63261 11.9996 2.5C11.9996 2.36739 11.947 2.24021 11.8532 2.14645C11.7594 2.05268 11.6322 2 11.4996 2ZM3.99988 1.5C4.00005 1.36744 4.05278 1.24036 4.14651 1.14663C4.24025 1.0529 4.36733 1.00017 4.49988 1H7.49988C7.63244 1.00017 7.75952 1.0529 7.85325 1.14663C7.94699 1.24036 7.99972 1.36744 7.99988 1.5V2H3.99988V1.5ZM9.99963 12H1.99963V3H9.99963V12ZM4.99988 5.5V9.5C4.99988 9.63261 4.94721 9.75979 4.85344 9.85355C4.75967 9.94732 4.63249 10 4.49988 10C4.36728 10 4.2401 9.94732 4.14633 9.85355C4.05256 9.75979 3.99988 9.63261 3.99988 9.5V5.5C3.99988 5.36739 4.05256 5.24021 4.14633 5.14645C4.2401 5.05268 4.36728 5 4.49988 5C4.63249 5 4.75967 5.05268 4.85344 5.14645C4.94721 5.24021 4.99988 5.36739 4.99988 5.5ZM7.99988 5.5V9.5C7.99988 9.63261 7.94721 9.75979 7.85344 9.85355C7.75967 9.94732 7.63249 10 7.49988 10C7.36728 10 7.2401 9.94732 7.14633 9.85355C7.05256 9.75979 6.99988 9.63261 6.99988 9.5V5.5C6.99988 5.36739 7.05256 5.24021 7.14633 5.14645C7.2401 5.05268 7.36728 5 7.49988 5C7.63249 5 7.75967 5.05268 7.85344 5.14645C7.94721 5.24021 7.99988 5.36739 7.99988 5.5Z" fill="#63382C"/>
</svg>
