<svg width="16" height="16" viewBox="0 0 16 16" fill="none" xmlns="http://www.w3.org/2000/svg">
<path d="M13.4996 3H10.9999V2.5C10.9994 2.10231 10.8413 1.72104 10.5601 1.43983C10.2788 1.15863 9.89757 1.00045 9.49988 1H6.49988C6.1022 1.00045 5.72092 1.15863 5.43972 1.43983C5.15851 1.72104 5.00033 2.10231 4.99988 2.5V3H2.49963C2.36703 3 2.23985 3.05268 2.14608 3.14645C2.05231 3.24021 1.99963 3.36739 1.99963 3.5C1.99963 3.63261 2.05231 3.75979 2.14608 3.85355C2.23985 3.94732 2.36703 4 2.49963 4H2.99963V13C2.99993 13.2651 3.10538 13.5193 3.29286 13.7068C3.48033 13.8942 3.73451 13.9997 3.99963 14H11.9996C12.2648 13.9997 12.5189 13.8942 12.7064 13.7068C12.8939 13.5193 12.9993 13.2651 12.9996 13V4H13.4996C13.6322 4 13.7594 3.94732 13.8532 3.85355C13.947 3.75979 13.9996 3.63261 13.9996 3.5C13.9996 3.36739 13.947 3.24021 13.8532 3.14645C13.7594 3.05268 13.6322 3 13.4996 3ZM5.99988 2.5C6.00005 2.36744 6.05278 2.24036 6.14651 2.14663C6.24025 2.0529 6.36733 2.00017 6.49988 2H9.49988C9.63244 2.00017 9.75952 2.0529 9.85325 2.14663C9.94699 2.24036 9.99972 2.36744 9.99988 2.5V3H5.99988V2.5ZM11.9996 13H3.99963V4H11.9996V13ZM6.99988 6.5V10.5C6.99988 10.6326 6.94721 10.7598 6.85344 10.8536C6.75967 10.9473 6.63249 11 6.49988 11C6.36728 11 6.2401 10.9473 6.14633 10.8536C6.05256 10.7598 5.99988 10.6326 5.99988 10.5V6.5C5.99988 6.36739 6.05256 6.24021 6.14633 6.14645C6.2401 6.05268 6.36728 6 6.49988 6C6.63249 6 6.75967 6.05268 6.85344 6.14645C6.94721 6.24021 6.99988 6.36739 6.99988 6.5ZM9.99988 6.5V10.5C9.99988 10.6326 9.94721 10.7598 9.85344 10.8536C9.75967 10.9473 9.63249 11 9.49988 11C9.36728 11 9.2401 10.9473 9.14633 10.8536C9.05256 10.7598 8.99988 10.6326 8.99988 10.5V6.5C8.99988 6.36739 9.05256 6.24021 9.14633 6.14645C9.2401 6.05268 9.36728 6 9.49988 6C9.63249 6 9.75967 6.05268 9.85344 6.14645C9.94721 6.24021 9.99988 6.36739 9.99988 6.5Z" fill="#F2F2F7"/>
</svg>
