<svg width="25" height="24" viewBox="0 0 25 24" fill="none" xmlns="http://www.w3.org/2000/svg">
<path d="M22.2442 19.8737C20.8447 17.4634 18.6036 15.6555 15.9517 14.7979C17.2221 14.042 18.2093 12.8899 18.7615 11.5186C19.3137 10.1473 19.4005 8.63262 19.0085 7.20723C18.6165 5.78183 17.7674 4.52454 16.5917 3.62846C15.4159 2.73238 13.9785 2.24707 12.5001 2.24707C11.0218 2.24707 9.5844 2.73238 8.40863 3.62846C7.23285 4.52454 6.38376 5.78183 5.99177 7.20723C5.59978 8.63262 5.68656 10.1473 6.2388 11.5186C6.79103 12.8899 7.77817 14.042 9.0486 14.7979C6.39675 15.6555 4.1556 17.4633 2.7561 19.8735C2.70677 19.9588 2.67472 20.0529 2.66178 20.1505C2.64883 20.2482 2.65525 20.3474 2.68066 20.4426C2.70606 20.5377 2.74996 20.627 2.80986 20.7052C2.86975 20.7834 2.94445 20.849 3.02971 20.8983C3.11497 20.9477 3.2091 20.9797 3.30675 20.9926C3.40439 21.0056 3.50363 20.9992 3.59879 20.9738C3.69395 20.9484 3.78318 20.9045 3.86138 20.8446C3.93958 20.7847 4.00521 20.71 4.05454 20.6247C4.91075 19.1425 6.14195 17.9118 7.62445 17.0561C9.10695 16.2004 10.7885 15.75 12.5002 15.75C14.212 15.75 15.8935 16.2005 17.376 17.0562C18.8585 17.9119 20.0897 19.1427 20.9458 20.6249C20.9952 20.7102 21.0608 20.7849 21.139 20.8447C21.2172 20.9046 21.3064 20.9485 21.4016 20.9739C21.4967 20.9993 21.596 21.0057 21.6936 20.9928C21.7912 20.9798 21.8854 20.9478 21.9706 20.8985C22.0559 20.8491 22.1306 20.7835 22.1905 20.7053C22.2504 20.6271 22.2942 20.5379 22.3197 20.4427C22.3451 20.3476 22.3515 20.2483 22.3385 20.1507C22.3256 20.0531 22.2935 19.9589 22.2442 19.8737ZM7.2501 9C7.2501 7.96165 7.55801 6.94661 8.13488 6.08326C8.71176 5.2199 9.5317 4.54699 10.491 4.14963C11.4503 3.75227 12.5059 3.6483 13.5243 3.85088C14.5427 4.05345 15.4782 4.55346 16.2124 5.28769C16.9466 6.02191 17.4466 6.95738 17.6492 7.97578C17.8518 8.99418 17.7478 10.0498 17.3505 11.0091C16.9531 11.9684 16.2802 12.7883 15.4168 13.3652C14.5535 13.9421 13.5385 14.25 12.5001 14.25C11.1082 14.2484 9.77377 13.6948 8.78954 12.7106C7.80532 11.7263 7.25169 10.3919 7.2501 9Z" fill="#63382C"/>
</svg>
