<svg width="148" height="38" viewBox="0 0 148 38" fill="none" xmlns="http://www.w3.org/2000/svg">
<path d="M1.50488 5.8877H12.5819C20.5593 5.8877 26.0276 10.6945 26.0276 18.0797C26.0276 25.4649 20.5593 30.2716 12.5819 30.2716H1.50488V5.8877ZM12.3028 25.6376C17.145 25.6376 20.3141 22.7461 20.3141 18.0781C20.3141 13.4101 17.145 10.5187 12.3028 10.5187H7.14749V25.636H12.3028V25.6376Z" fill="#2949A6"/>
<path d="M41.5269 11.2524V16.2689C41.0735 16.2335 40.725 16.1996 40.3071 16.1996C37.3107 16.1996 35.326 17.8373 35.326 21.4242V30.2714H29.8916V11.53H35.0824V14.0036C36.4055 12.1916 38.6354 11.2524 41.5269 11.2524Z" fill="#2949A6"/>
<path d="M86.662 11.53V27.1347C86.662 34.1004 82.9008 37.3065 76.1432 37.3065C72.5902 37.3065 69.142 36.4352 66.9476 34.7296L69.1066 30.8281C70.7088 32.1173 73.3212 32.9531 75.7253 32.9531C79.5575 32.9531 81.2291 31.2121 81.2291 27.8333V27.0329C79.8011 28.5997 77.7455 29.3661 75.3074 29.3661C70.1166 29.3661 65.9375 25.7776 65.9375 20.3093C65.9375 14.8409 70.1166 11.2524 75.3074 11.2524C77.9197 11.2524 80.0787 12.1237 81.5082 13.9342V11.53H86.6635H86.662ZM81.2985 20.3077C81.2985 17.5566 79.2429 15.7092 76.3869 15.7092C73.5309 15.7092 71.4413 17.5551 71.4413 20.3077C71.4413 23.0604 73.5309 24.9063 76.3869 24.9063C79.2429 24.9063 81.2985 23.0604 81.2985 20.3077Z" fill="#2949A6"/>
<path d="M114.458 23.6174C114.458 27.832 111.114 30.2701 104.704 30.2701H92.0938V5.8877H104.007C110.103 5.8877 113.238 8.43065 113.238 12.2273C113.238 14.6654 111.984 16.5468 109.998 17.5924C112.715 18.4637 114.456 20.5532 114.456 23.6189L114.458 23.6174ZM97.7024 10.1378V15.8852H103.311C106.062 15.8852 107.561 14.9106 107.561 12.9938C107.561 11.0769 106.064 10.1378 103.311 10.1378H97.7024ZM108.779 23.0252C108.779 20.9696 107.213 19.995 104.286 19.995H97.7024V26.0216H104.286C107.211 26.0216 108.779 25.1163 108.779 23.0252Z" fill="#2949A6"/>
<path d="M117.695 5.88768C117.695 4.18056 119.054 2.85742 121.074 2.85742C123.094 2.85742 124.453 4.11116 124.453 5.78282C124.453 7.5948 123.094 8.91794 121.074 8.91794C119.054 8.91794 117.695 7.5948 117.695 5.88768ZM118.357 11.5303H123.791V30.2701H118.357V11.5303Z" fill="#2949A6"/>
<path d="M148 19.5429V30.2714H142.566V20.3788C142.566 17.3485 141.172 15.9544 138.769 15.9544C136.157 15.9544 134.275 17.5567 134.275 21.0049V30.2699H128.841V11.5301H134.032V13.7245C135.495 12.1223 137.689 11.251 140.232 11.251C144.657 11.251 148 13.8279 148 19.5414V19.5429Z" fill="#2949A6"/>
<path d="M48.0176 13.8018L48.0176 23.8485C48.0176 26.1492 49.8826 28.0142 52.1833 28.0142H54.1192C56.4199 28.0142 58.285 26.1492 58.285 23.8485L58.285 13.8018" stroke="#2949A6" stroke-width="4.90086" stroke-linecap="square"/>
<path d="M45.4664 9.11983L45.0877 6.57167L48.2613 6.05885L48.275 4.1594L55.9021 2.98888L56.7544 4.83217L60.4394 4.37236L60.8046 7.00177L45.4664 9.11983Z" fill="#2949A6"/>
<path d="M48.2613 6.05885L45.0877 6.57167L45.4664 9.11984L60.8046 7.00177L60.4394 4.37236L56.7544 4.83217M48.2613 6.05885L48.275 4.1594L55.9021 2.98888L56.7544 4.83217M48.2613 6.05885L56.7544 4.83217" stroke="#2949A6" stroke-width="1.22521"/>
</svg>
