<svg width="24" height="23" viewBox="0 0 24 23" fill="none" xmlns="http://www.w3.org/2000/svg">
<path d="M4.53236 5.7514V0.654457V0.103541C4.53236 0.0468864 4.57924 0 4.6359 0H5.18681H15.9297C15.9473 0 15.9629 0.0039072 15.9766 0.0117216L16.3536 0.16801C16.3692 0.173871 16.381 0.183639 16.3927 0.19536L18.9187 2.68816L19.0828 2.85031C19.1023 2.86984 19.114 2.89719 19.114 2.92454V3.15507V5.75531C19.114 5.81197 19.0672 5.85885 19.0105 5.85885H17.9145C17.8579 5.85885 17.811 5.81197 17.811 5.75531V4.41123H15.4569H14.906C14.8493 4.41123 14.8024 4.36435 14.8024 4.30769C14.8024 4.30378 14.8024 4.30183 14.8024 4.29792V3.75678V1.30696H5.83932V5.7514C5.83932 5.80806 5.79243 5.85495 5.73578 5.85495H4.63394C4.57924 5.85495 4.53236 5.80806 4.53236 5.7514ZM6.04835 13.2552H17.9595C17.9673 13.2552 17.9751 13.2552 17.9829 13.2571C18.1451 13.2611 18.3013 13.2943 18.444 13.3529C18.5983 13.4173 18.7389 13.5111 18.8562 13.6283C18.9714 13.7436 19.0652 13.8842 19.1297 14.0386C19.1883 14.1812 19.2215 14.3355 19.2254 14.4977C19.2274 14.5055 19.2274 14.5133 19.2274 14.5211V16.3263H21.7983C21.8061 16.3263 21.812 16.3263 21.8198 16.3282C21.9311 16.3263 22.0405 16.3009 22.1402 16.2598C22.2515 16.2129 22.3512 16.1446 22.4352 16.0606C22.5192 15.9766 22.5875 15.8769 22.6344 15.7656C22.6755 15.6659 22.7009 15.5565 22.7028 15.4432C22.7009 15.4374 22.7009 15.4295 22.7009 15.4237V8.50794C22.7009 8.50012 22.7009 8.49426 22.7028 8.48645C22.7009 8.37509 22.6755 8.26569 22.6344 8.16606C22.5875 8.05665 22.5192 7.95507 22.4352 7.87106C22.3512 7.78706 22.2515 7.71868 22.1402 7.67179C22.0405 7.62882 21.9311 7.60537 21.8178 7.60342C21.812 7.60537 21.8042 7.60537 21.7983 7.60537H2.20952C2.20171 7.60537 2.1939 7.60537 2.18803 7.60342C2.07668 7.60537 1.96728 7.63077 1.86764 7.67179C1.75824 7.71868 1.65665 7.78706 1.57265 7.87106C1.48864 7.95507 1.42027 8.0547 1.37338 8.16606C1.33236 8.26569 1.30696 8.37509 1.30501 8.4884C1.30696 8.49426 1.30696 8.50208 1.30696 8.50794V15.4256C1.30696 15.4335 1.30696 15.4413 1.30501 15.4471C1.30696 15.5585 1.33236 15.6679 1.37338 15.7675C1.42027 15.8789 1.48864 15.9785 1.57265 16.0625C1.65665 16.1465 1.75824 16.2149 1.86764 16.2618C1.96728 16.3048 2.07668 16.3282 2.18999 16.3302C2.19585 16.3282 2.20366 16.3282 2.20952 16.3282H4.78046V14.5231C4.78046 14.5153 4.78046 14.5074 4.78242 14.4996C4.78632 14.3375 4.81954 14.1812 4.87814 14.0405C4.93871 13.8921 5.02857 13.7573 5.13797 13.644C5.14188 13.6381 5.14579 13.6322 5.15165 13.6283C5.26691 13.5131 5.40757 13.4193 5.5619 13.3548C5.70452 13.2962 5.85885 13.263 6.02295 13.2591C6.03077 13.2552 6.03858 13.2552 6.04835 13.2552ZM19.2254 17.6352V21.0286C19.2254 21.0364 19.2254 21.0442 19.2234 21.052C19.2195 21.2142 19.1863 21.3705 19.1277 21.5131C19.0632 21.6674 18.9695 21.8081 18.8523 21.9253C18.737 22.0405 18.5963 22.1343 18.442 22.1988C18.2994 22.2574 18.1451 22.2906 17.9829 22.2945C17.9751 22.2965 17.9673 22.2965 17.9595 22.2965H6.04835C6.04054 22.2965 6.03272 22.2945 6.02491 22.2945C5.86276 22.2906 5.70843 22.2574 5.56581 22.1988C5.41148 22.1343 5.27277 22.0405 5.15556 21.9253C5.03834 21.8081 4.94457 21.6694 4.8801 21.5131C4.82149 21.3705 4.78828 21.2161 4.78437 21.054C4.78242 21.0462 4.78242 21.0383 4.78242 21.0305V17.6352H2.20952C2.20171 17.6352 2.19389 17.6352 2.18608 17.6332C1.89499 17.6293 1.61758 17.5707 1.36557 17.4672C1.09402 17.3558 0.85177 17.1917 0.648596 16.9885C0.445421 16.7853 0.281319 16.5431 0.169963 16.2716C0.0644689 16.0176 0.00586081 15.7421 0.0039072 15.451C0 15.4413 0 15.4335 0 15.4256V8.50794C0 8.50012 0 8.49231 0.0019536 8.48449C0.00586081 8.19341 0.0644689 7.91795 0.16801 7.66398C0.279365 7.39243 0.443468 7.15018 0.646642 6.94701C0.849817 6.74383 1.09206 6.57973 1.36361 6.46838C1.61758 6.36288 1.89304 6.30427 2.18413 6.30232C2.19194 6.30037 2.19976 6.30037 2.20757 6.30037H21.7924C21.8002 6.30037 21.8081 6.30037 21.8159 6.30232C22.107 6.30623 22.3844 6.36484 22.6364 6.46838C22.9079 6.57973 23.1502 6.74383 23.3534 6.94701C23.5565 7.15018 23.7206 7.39243 23.832 7.66398C23.9375 7.91795 23.9961 8.19341 23.998 8.48449C24 8.49231 24 8.50012 24 8.50794V15.4256C24 15.4335 24 15.4413 23.998 15.4491C23.9941 15.7402 23.9355 16.0156 23.832 16.2696C23.7206 16.5411 23.5565 16.7834 23.3534 16.9866C23.1502 17.1897 22.9079 17.3538 22.6364 17.4652C22.3824 17.5707 22.107 17.6293 21.8159 17.6313C21.8081 17.6332 21.8002 17.6332 21.7924 17.6332H19.2254V17.6352ZM17.4789 3.09841L16.1114 1.74847V3.09841H17.4789ZM17.9184 14.5621H6.08742V20.9875H17.9184V14.5621Z" fill="#1C3375"/>
</svg>
